<?xml version="1.0" standalone="no"?>
<!DOCTYPE svg PUBLIC "-//W3C//DTD SVG 20010904//EN"
 "http://www.w3.org/TR/2001/REC-SVG-20010904/DTD/svg10.dtd">
<svg version="1.0" xmlns="http://www.w3.org/2000/svg"
 width="247.000000pt" height="247.000000pt" viewBox="0 0 247.000000 247.000000"
 preserveAspectRatio="xMidYMid meet">
<metadata>
Created by potrace 1.11, written by Peter Selinger 2001-2013
</metadata>
<g transform="translate(0.000000,247.000000) scale(0.100000,-0.100000)"
fill="#000000" stroke="none">
<path d="M1559 1587 c-87 -33 -139 -80 -180 -164 -32 -65 -33 -178 -2 -244 90
-198 343 -246 495 -94 61 62 82 117 83 215 0 73 -4 92 -27 135 -31 60 -77 105
-138 137 -55 28 -175 36 -231 15z"/>
<path d="M668 1579 c-98 -252 -151 -385 -157 -391 -3 -4 -38 80 -76 187 l-69
195 -33 0 c-18 0 -33 -2 -33 -5 0 -8 200 -548 205 -553 2 -3 9 8 15 24 50 131
153 384 156 381 2 -1 26 -66 54 -142 28 -77 63 -171 77 -208 l25 -68 95 238
c52 131 104 260 114 286 l19 48 -36 -3 c-35 -4 -36 -4 -80 -118 -24 -63 -48
-124 -53 -135 -5 -11 -19 -46 -31 -78 -13 -32 -26 -55 -30 -50 -4 4 -35 87
-70 183 -73 202 -85 228 -92 209z"/>
<path d="M1135 1569 c-64 -17 -111 -100 -93 -165 10 -40 24 -51 138 -117 81
-47 96 -59 101 -86 8 -39 -16 -91 -51 -108 -59 -30 -124 -5 -150 57 -7 16 -14
30 -17 30 -4 0 -44 -20 -51 -25 -1 -1 4 -18 13 -38 23 -57 77 -92 144 -94 31
-1 67 5 83 13 93 48 127 172 64 235 -13 13 -62 46 -110 72 -111 62 -128 91
-83 143 34 39 100 40 133 1 23 -27 25 -27 48 -11 22 13 23 18 13 35 -30 49
-114 76 -182 58z"/>
<path d="M1998 1323 c-11 -3 -18 -14 -18 -29 0 -21 3 -24 25 -18 33 8 79 -11
94 -39 32 -60 18 -91 -95 -214 -108 -117 -137 -153 -127 -154 11 -1 265 -1
281 0 6 1 12 10 12 21 0 22 0 22 -118 22 -94 -1 -92 -5 -20 73 107 116 128
149 128 205 0 44 -25 93 -58 112 -31 17 -78 27 -104 21z"/>
</g>
</svg>
