<?xml version="1.0" encoding="UTF-8"?> <svg xmlns="http://www.w3.org/2000/svg" xmlns:xlink="http://www.w3.org/1999/xlink" width="380px" height="237px" viewBox="0 0 380 237"><!-- Generator: Sketch 63.1 (92452) - https://sketch.com --><title>4380</title><desc>Created with Sketch.</desc><defs><path d="M15.7596916,0.0207639612 C24.4437004,0.0207639612 31.4833455,7.05411402 31.4833455,15.7301364 C31.4833455,24.4063797 24.4437004,31.4397297 15.7596916,31.4397297 C7.07579345,31.4397297 0.0361483636,24.4063797 0.0361483636,15.7301364 M15.7596916,7.40809538 C11.1594531,7.40809538 7.43020218,11.1340115 7.43020218,15.7301364 C7.43020218,20.3263717 11.1594531,24.0522878 15.7596916,24.0522878 C20.3600407,24.0522878 24.0892916,20.3263717 24.0892916,15.7301364" id="path-1"></path></defs><g id="Page-1" stroke="none" stroke-width="1" fill="none" fill-rule="evenodd"><g id="SaaStr-Landing-page" transform="translate(-528.000000, -565.000000)"><g id="4380" transform="translate(528.000000, 565.000000)"><g id="Group-147"><path d="M43.4424844,18.6540629 C100.442705,-2.48784652 158.376262,16.2035842 197.667433,56.9140912 C217.317993,77.2755849 247.768844,70.2404677 278.771316,63.2052401 C309.754996,56.1743198 341.290298,49.1435101 363.149556,69.4594998 C392.994618,97.1970594 379.323462,168.511326 338.401745,199.399927 C282.777484,241.383994 75.5566022,242.64419 41.1744233,228.237535 C-17.578496,203.618987 40.7994531,158.028839 13.3742313,114.326223 C-18.9810967,62.7678715 18.2530444,27.9970723 43.4424844,18.6540629" id="Fill-3" fill="#E7F3FE"></path><path d="M364.292596,216.100558 C335.759709,214.706722 238.697484,217.066965 209.177425,217.98809 C179.657367,218.90811 145.391593,216.773177 127.592669,213.634285 C109.793745,210.494288 6.90732218,213.901566 11.5762095,222.341895 C16.2452073,230.782224 57.4166458,226.118064 104.106182,229.50988 C150.795055,232.902799 255.799971,229.085765 279.486545,229.50988 C303.172015,229.933995 324.891985,228.66165 355.415796,226.96519 C385.939607,225.269835 380.831302,216.907922 364.292596,216.100558" id="Fill-4" fill="#CCE2FF"></path><path d="M280.712495,54.0217156 L277.810676,49.5408969 C276.963898,49.6376482 276.103855,49.6890058 275.230545,49.6890058 C273.950429,49.6890058 272.696844,49.5804368 271.475316,49.3748957 L268.341353,53.6960085 C266.808087,53.2985112 265.326778,52.7713496 263.910691,52.1270041 L264.199215,46.7996123 C262.344262,45.7531307 260.654022,44.4510757 259.174924,42.9410498 L258.687418,43.1000929 L258.687418,10.2013636 L260.027229,10.7178119 C261.581498,9.28940598 263.338065,8.07758586 265.248291,7.12929134 L265.241658,1.79372645 C266.688698,1.2264727 268.195433,0.778832621 269.749702,0.462844893 L272.65152,4.94366353 C273.498298,4.84702276 274.358342,4.79555464 275.230545,4.79555464 C276.510662,4.79555464 277.765353,4.9040132 278.98688,5.10955433 L282.120844,0.788662369 C283.654109,1.18615969 285.135418,1.71321087 286.551505,2.3574459 L286.262982,7.68505864 C288.116829,8.73142975 289.807069,10.0334847 291.287273,11.5435107 L296.362415,9.88891014 C297.357324,11.0966437 298.249425,12.3917406 299.027665,13.7600635 L295.662662,17.8969515 C296.53376,19.7944241 297.147287,21.8341519 297.459025,23.9717355 L302.534167,25.6121988 C302.566225,26.15162 302.583913,26.6947964 302.583913,27.2422802 C302.583913,28.2797052 302.524218,29.3031034 302.411462,30.3105973 L297.257833,31.6807978 C296.833338,33.7935309 296.111476,35.7985785 295.139782,37.6516516 L298.281484,41.961278 C297.432495,43.2855327 296.471855,44.5310391 295.413935,45.6862001 L290.434967,43.7667486 C288.880698,45.195044 287.124131,46.4068642 285.2128,47.3553796 L285.219433,52.6907236 C283.773498,53.2579773 282.266764,53.7058383 280.712495,54.0217156 M275.230545,16.5234375 C269.305309,16.5234375 264.502109,21.3224528 264.502109,27.2422802 C264.502109,33.1621077 269.305309,37.961123 275.230545,37.961123 C281.155782,37.961123 285.958982,33.1621077 285.958982,27.2422802 C285.958982,21.3224528 281.155782,16.5234375 275.230545,16.5234375" id="Fill-5" fill="#CEE3FF"></path><path d="M289.863447,39.6187056 C289.738531,39.6187056 289.613615,39.5768463 289.509702,39.4911397 C289.275345,39.296091 289.243287,38.9479633 289.438953,38.7133748 C292.111942,35.5012562 293.584407,31.4273229 293.584407,27.2422802 C293.584407,25.2380057 293.257193,23.2701786 292.609396,21.3933595 C292.509905,21.1049835 292.663564,20.7907629 292.952087,20.6913609 C293.240611,20.5920694 293.555665,20.7453693 293.655156,21.033635 C294.341644,23.0265334 294.689862,25.1152996 294.689862,27.2422802 C294.689862,31.6847739 293.126749,36.0095315 290.289047,39.4196808 C290.179607,39.5510018 290.021527,39.6187056 289.863447,39.6187056" id="Fill-6" fill="#FFFFFF"></path><path d="M288.310284,14.3196965 C288.174313,14.3196965 288.038342,14.269885 287.931113,14.1694891 C286.134749,12.4793247 284.053178,11.1981442 281.746095,10.3615111 C281.458676,10.2575809 281.310545,9.94082004 281.414458,9.65410066 C281.518371,9.36727083 281.835636,9.21938283 282.123055,9.32331309 C284.572742,10.2115247 286.782545,11.5714537 288.689455,13.3654378 C288.911651,13.5744028 288.9216,13.9239663 288.712669,14.1460744 C288.604335,14.2613807 288.457309,14.3196965 288.310284,14.3196965" id="Fill-7" fill="#FFFFFF"></path><path d="M271.069615,9.85224186 C270.821993,9.85224186 270.597585,9.6854675 270.533469,9.43508505 C270.459404,9.1394195 270.638487,8.83911518 270.934749,8.76445328 C272.45696,8.38054089 274.032233,8.18582353 275.616349,8.18582353 C275.92256,8.18582353 276.169076,8.43311348 276.169076,8.73805654 C276.169076,9.04299961 275.92256,9.29028955 275.616349,9.29028955 C274.12288,9.29028955 272.63936,9.47363091 271.20448,9.83534353 C271.159156,9.84682998 271.113833,9.85224186 271.069615,9.85224186" id="Fill-8" fill="#FFFFFF"></path><path d="M256.896582,67.8537167 L256.896582,43.6839136 L258.687418,43.1000929 L258.687418,67.5211619 C258.090473,67.6342593 257.491316,67.7455894 256.896582,67.8537167 M258.687418,10.2013636 L256.896582,9.51107231 L256.896582,3.04442377 L96.0617891,3.04442377 L96.0617891,9.94280808 C94.6036945,9.89542649 93.1367564,9.87145957 91.6720291,9.87145957 C90.3598545,9.87145957 89.0498909,9.89045639 87.7332945,9.92889181 L87.7332945,0.540820194 L258.687418,0.540820194 L258.687418,10.2013636" id="Fill-9" fill="#CEE3FF"></path><path d="M258.687418,103.13246 L87.7332945,103.13246 L87.7332945,9.92889181 C89.0498909,9.89045639 90.3598545,9.87145957 91.6720291,9.87145957 C93.1367564,9.87145957 94.6036945,9.89542649 96.0617891,9.94280808 L96.0617891,97.2257755 L256.896582,97.2257755 L256.896582,67.8537167 C257.491316,67.7455894 258.090473,67.6342593 258.687418,67.5211619 L258.687418,103.13246" id="Fill-10" fill="#C2DDFF"></path><polyline id="Fill-11" fill="#B6D5FF" points="256.896582 43.6839136 256.896582 9.51107231 258.687418 10.2013636 258.687418 43.1000929 256.896582 43.6839136"></polyline><polygon id="Fill-12" fill="#FFFFFF" points="96.0617891 97.2257755 256.896582 97.2257755 256.896582 3.04442377 96.0617891 3.04442377"></polygon><path d="M233.208902,51.7179099 C240.874124,44.4284342 253.97376,44.5941041 253.697396,55.6939876 C253.421033,66.7938711 254.33856,67.8370392 257.492422,73.6598945 C268.436422,93.863781 244.448058,92.6753755 234.443695,93.3380551 C224.439331,94.0007348 225.268422,75.1693682 227.037149,64.7321643 C228.805876,54.2949605 230.965935,53.8508547 233.208902,51.7179099" id="Fill-13" fill="#303C60"></path><path d="M236.781731,115.361108 C234.324305,135.978175 229.859375,151.218701 229.36192,160.993226 C228.864465,170.766645 226.874647,209.251764 226.874647,209.251764 C226.874647,209.251764 232.346647,208.869619 232.844102,208.041269 C233.341556,207.21292 243.124829,185.511267 242.627375,172.092005 C242.12992,158.673847 252.398487,138.271046 252.398487,138.271046 L249.922269,118.2526 L236.781731,115.361108" id="Fill-14" fill="#4476BD"></path><path d="M239.141876,124.335998 L235.299316,125.942997 C234.254662,132.480331 233.09504,138.358299 232.078022,143.572483 C238.193396,147.522054 241.35168,160.682871 242.705862,168.728906 C243.395665,159.725299 247.647244,148.846308 250.284858,142.830282 L239.141876,124.335998" id="Fill-15" fill="#3E6BAB"></path><path d="M256.886633,113.282503 C256.886633,113.282503 265.168698,123.837884 264.908916,135.812505 C264.514269,154.041717 262.524451,159.24596 265.986735,178.359849 C267.338705,185.824935 263.002007,210.245783 263.002007,210.245783 C263.002007,210.245783 259.297629,210.535153 257.307811,209.545552 C257.473629,207.751899 254.913396,178.563071 249.927796,165.146018 C247.512378,158.648444 244.119738,140.451262 242.295738,130.014058 C240.471738,119.577959 240.140102,117.42425 240.803375,117.42425 C241.466647,117.42425 256.886633,113.282503 256.886633,113.282503" id="Fill-16" fill="#4476BD"></path><path d="M209.700305,83.9683177 C209.700305,83.9683177 210.068422,78.5065123 209.479215,76.8195509 C208.888902,75.1325895 203.803811,73.6598945 203.803811,73.6598945 C203.803811,73.6598945 203.58272,81.4648245 204.098967,82.4220652 C204.615215,83.3791955 207.636422,86.1035818 207.636422,86.1035818 L209.700305,83.9683177" id="Fill-17" fill="#F09959"></path><path d="M238.292887,79.9887057 C226.65024,92.5097056 222.849687,97.7780085 221.965324,97.7780085 C219.201687,92.904 210.023098,82.5956873 210.023098,82.5956873 L206.108684,85.1095624 C206.108684,85.1095624 215.153513,108.719953 220.901876,108.96404 C226.65024,109.208127 238.333789,100.821917 238.48192,99.8588225 C238.630051,98.8957282 238.292887,79.9887057 238.292887,79.9887057" id="Fill-18" fill="#A2DFF2"></path><path d="M226.149469,107.740292 C231.845876,105.423122 238.371375,100.576725 238.48192,99.8588225 C238.630051,98.8957282 238.292887,79.9887057 238.292887,79.9887057 C235.754764,82.7183935 233.539433,85.1392725 231.615942,87.2565339 C229.529949,95.0168435 229.667025,103.467113 226.149469,107.740292" id="Fill-19" fill="#96CFE0"></path><path d="M250.122356,71.7455236 C250.122356,71.7455236 261.264233,77.3253963 263.696233,87.2023046 C266.128233,97.0788816 258.931724,109.282127 258.04736,115.794058 C257.162996,122.30599 236.823738,123.451321 236.823738,116.481036 C236.823738,109.797912 231.727593,95.6132551 232.015011,91.9994423 C232.690444,83.522003 245.093644,73.1364881 245.093644,73.1364881 L250.122356,71.7455236" id="Fill-20" fill="#A2DFF2"></path><path d="M246.88448,58.9500638 L251.667782,73.6868435 C251.667782,73.6868435 246.560582,77.6247066 237.819753,87.0976012 C238.159127,80.7939719 243.445411,73.9223157 243.445411,73.9223157 L239.827258,60.0060438 L246.88448,58.9500638" id="Fill-21" fill="#F09959"></path><path d="M249.115287,65.8238186 L246.88448,58.9500638 L239.827258,60.0060438 L243.445411,73.9223157 C243.445411,73.9223157 243.091665,74.4848202 242.570996,75.3692766 C245.979113,72.8414852 248.070633,69.6956346 249.115287,65.8238186" id="Fill-22" fill="#E38540"></path><path d="M244.249076,62.2762737 C242.959011,66.9659469 237.963462,69.5476362 234.412742,68.5728345 C230.863127,67.5979223 230.10368,63.4357421 231.393745,58.746069 C232.683811,54.0563958 236.608175,51.0448483 240.157789,52.0197605 C243.707404,52.9945622 245.539142,57.5864901 244.249076,62.2762737" id="Fill-23" fill="#F09959"></path><path d="M235.934953,109.873016 C237.483695,119.67957 231.732015,140.658902 231.732015,140.658902 C231.732015,140.658902 235.16224,141.43755 245.442967,140.443531 C255.723695,139.449511 260.256058,129.197858 261.803695,128.911801 C263.351331,128.625744 264.146153,138.452179 264.908916,139.228618 C265.672785,140.005058 265.788858,126.819943 263.793513,121.635579 C260.256058,112.447526 260.948073,108.549866 262.270196,102.983357 C264.621498,93.084028 235.934953,109.873016 235.934953,109.873016" id="Fill-24" fill="#A2DFF2"></path><path d="M227.12448,204.425247 C228.050851,208.183745 226.222429,211.164699 223.776058,213.338288 C221.78624,215.105434 215.66976,215.856471 215.963811,216.740043 C216.258967,217.623616 223.480902,217.903046 225.912902,217.535259 C228.344902,217.166367 229.008175,215.989007 232.034909,215.990111 C234.020305,215.991216 234.388422,214.378695 233.504058,212.386238 C232.619695,210.392677 232.310167,209.291525 233.109411,207.504499 C233.908655,205.717473 227.12448,204.425247 227.12448,204.425247" id="Fill-25" fill="#4476BD"></path><path d="M263.21536,204.425247 C263.067229,208.327326 262.613993,211.23428 263.572422,213.043396 C267.272378,216.135901 270.347753,219.649207 269.17376,219.891085 C263.572422,221.047461 261.435578,217.693198 258.26624,216.740043 C254.377251,215.56931 258.634356,210.68757 257.11104,204.425247 C256.263156,200.942866 262.983215,201.777842 262.983215,201.777842 L263.21536,204.425247" id="Fill-26" fill="#4476BD"></path><path d="M264.629236,124.835217 C264.405935,123.611469 264.129571,122.509212 263.793513,121.635579 C260.256058,112.447526 260.948073,108.549866 262.270196,102.983357 C262.375215,102.543779 262.417222,102.158321 262.403956,101.820354 C262.702429,100.828544 262.981004,99.8223751 263.225309,98.8095798 L262.024785,87.9811741 L253.367971,77.7096401 C246.880058,87.2080478 251.258764,99.0260551 250.284858,105.542405 C249.312058,112.058754 238.441018,120.367652 238.441018,120.367652 L238.794764,122.679299 C239.280058,125.850221 242.222778,128.053631 245.403171,127.612949 C249.883578,126.991135 255.76128,125.743088 258.376785,123.318785 C260.907171,120.971795 263.149033,122.787537 264.629236,124.835217" id="Fill-27" fill="#96CFE0"></path><path d="M240.982458,119.994343 C240.982458,119.994343 236.18368,121.336269 235.609949,121.635579 C235.036218,121.935994 234.718953,123.520903 234.718953,123.520903 C234.718953,123.520903 231.971898,125.90434 233.024291,126.748152 C234.076684,127.591964 235.955956,129.728002 238.441018,128.733982 C239.96544,128.124317 241.148276,122.525779 242.147607,122.480496 C243.148044,122.436317 240.982458,119.994343 240.982458,119.994343" id="Fill-28" fill="#F09959"></path><path d="M254.574022,76.4579487 C259.709964,76.6032965 264.367244,85.845689 265.990051,93.863781 C267.612858,101.883309 269.320785,113.282503 269.320785,113.282503 C269.320785,113.282503 260.808785,119.994343 252.398487,121.955874 C245.06048,123.667797 241.3152,124.335998 241.3152,124.335998 L239.827258,120.151177 L257.381876,109.849822 C257.381876,109.849822 250.927127,97.7006959 250.284858,88.5334071 C249.643695,79.3663391 250.670662,76.3475021 254.574022,76.4579487" id="Fill-29" fill="#A2DFF2"></path><polyline id="Fill-30" fill="#F5DC95" points="206.796276 79.9454106 193.992902 82.5121897 192.362356 74.3881794 205.165731 71.8214004 206.796276 79.9454106"></polyline><path d="M206.620509,83.3056381 C206.796276,79.9454106 205.130356,75.3627602 204.173033,75.3692696 C203.214604,75.3759034 204.467084,78.3723197 203.951942,80.3603585 C203.672262,81.4376547 206.620509,83.3056381 206.620509,83.3056381" id="Fill-31" fill="#F09959"></path><path d="M232.334487,53.4850555 C232.619695,62.6889022 243.379084,61.9833693 246.327331,61.4156738 C249.275578,60.8480887 242.73792,80.8331804 248.353629,81.986243 C252.476975,82.833037 251.548393,76.3885883 256.129396,76.8195509 C258.155695,77.0101817 260.191942,80.1400176 260.191942,80.1400176 C260.191942,80.1400176 259.887942,78.2119512 258.340305,76.8195509 C256.792669,75.4270402 252.734545,66.8858731 251.667782,60.7745313 C250.602124,54.663079 243.379084,50.7103056 241.24224,50.5882621 C239.105396,50.4661081 233.872175,52.8959334 233.872175,52.8959334 L232.334487,53.4850555" id="Fill-32" fill="#303C60"></path><path d="M248.25856,84.0694868 C248.11264,84.0694868 247.965615,84.0541347 247.815273,84.0221052 C246.017804,83.6398495 245.146705,81.7527588 245.07264,78.0832809 C245.008524,74.9378722 245.529193,70.9012697 246.079709,66.6275385 C246.303011,64.9008163 246.532945,63.1152261 246.723084,61.3864054 C246.73856,61.2386279 246.870109,61.1317156 247.019345,61.1482826 C247.167476,61.1644078 247.274705,61.297275 247.258124,61.4450526 C247.067985,63.1789538 246.836945,64.9670843 246.614749,66.6963467 C245.547985,74.9652629 244.540916,82.7754944 247.926924,83.4957167 C248.031942,83.5181373 248.13696,83.5290715 248.241978,83.5290715 C250.186473,83.5294029 251.937513,79.7427411 252.957847,76.0548186 C252.997644,75.9115694 253.145775,75.82763 253.289484,75.8672803 C253.433193,75.9068202 253.517207,76.0550395 253.477411,76.1982888 C252.803084,78.632311 250.991244,84.0688241 248.25856,84.0694868" id="Fill-33" fill="#303C60"></path><path d="M247.538909,86.208727 C246.926487,86.208727 246.392553,85.971819 245.947055,85.5016478 C242.279156,81.6278437 245.906153,62.1912298 246.062022,61.3657519 C246.089658,61.2196311 246.231156,61.1238739 246.377076,61.1512646 C246.522996,61.1788763 246.619171,61.3196957 246.591535,61.4657061 C246.553949,61.6651727 242.858415,81.4562097 246.338385,85.1317622 C246.742982,85.5590801 247.222749,85.7296096 247.803113,85.6527388 C249.707811,85.4013623 250.806633,82.8194521 251.777222,80.5413805 C252.717964,78.3315649 253.603433,76.2444555 255.179811,76.2994579 C255.329047,76.3046489 255.44512,76.4292326 255.439593,76.5777833 C255.435171,76.726334 255.310255,76.8457268 255.161018,76.8372224 C255.147753,76.8367806 255.135593,76.8365597 255.122327,76.8365597 C253.940596,76.8365597 253.130298,78.7391129 252.272465,80.7521126 C251.246604,83.1626097 250.08256,85.8947273 247.872756,86.1863063 C247.76,86.2013271 247.648349,86.208727 247.538909,86.208727" id="Fill-34" fill="#303C60"></path><path d="M246.7264,63.1835925 C245.968058,64.1599405 244.779695,64.5068533 244.072204,63.9583755 C243.364713,63.4100081 243.40672,62.1738897 244.165062,61.1975417 C244.922298,60.2211938 246.110662,59.874281 246.818153,60.4227588 C247.525644,60.9711262 247.484742,62.2072446 246.7264,63.1835925" id="Fill-35" fill="#F09959"></path><path d="M163.124189,97.2655363 C165.750749,102.513959 163.57632,108.557597 158.409425,110.69253 C153.209367,112.841821 147.522909,111.621386 144.896349,106.372963 C142.269789,101.125645 144.219811,94.8323977 149.254051,92.3175285 C154.287185,89.8022176 160.496524,92.0182183 163.124189,97.2655363" id="Fill-36" fill="#303C60"></path><path d="M148.963316,111.32318 C148.384058,111.32318 147.241018,111.118854 145.788451,109.829942 C144.595665,108.774072 143.740044,107.153821 143.37856,105.268497 C142.920902,102.888373 143.219375,100.153715 144.262924,97.1374183 C144.311564,96.9971511 144.464116,96.9231518 144.605615,96.9717483 C144.746007,97.0203449 144.820073,97.1727612 144.771433,97.3130283 C143.758836,100.238759 143.468102,102.880642 143.906967,105.166886 C144.247447,106.936241 145.042269,108.449359 146.145513,109.427916 C147.988305,111.061421 149.223098,110.76432 149.236364,110.761007 C149.378967,110.723455 149.527098,110.807394 149.565789,110.94987 C149.60448,111.092346 149.522676,111.23924 149.380073,111.279001 C149.362385,111.284523 149.216465,111.32318 148.963316,111.32318" id="Fill-37" fill="#303C60"></path><path d="M156.996655,117.688217 C159.986909,118.357524 163.760931,126.657586 165.609251,131.97559 C167.473047,137.338877 170.633542,143.99218 172.702953,146.058636 C174.771258,148.126197 188.368349,152.918475 188.368349,152.918475 C188.368349,152.918475 154.774691,152.983638 155.462284,152.91737 C156.150982,152.851102 156.996655,117.688217 156.996655,117.688217" id="Fill-38" fill="#A8CEFF"></path><path d="M174.830953,150.252294 C172.992582,149.989431 166.357644,150.843183 169.18208,149.661404 C172.006516,148.48073 171.612975,146.970925 171.612975,146.970925 C171.612975,146.970925 167.605702,150.317457 166.88384,147.390622 C166.260364,144.868022 166.021585,135.958294 163.657018,127.027582 C161.70368,122.599778 159.146764,118.169765 156.996655,117.688217 C156.996655,117.688217 156.921484,120.832632 156.796567,125.241661 C157.621236,134.997409 159.021847,149.331169 159.376698,152.944982 C163.829469,152.951609 171.281338,152.944982 177.516102,152.936146 L181.662662,152.738447 C181.662662,152.738447 176.670429,150.515157 174.830953,150.252294" id="Fill-39" fill="#93BBF0"></path><path d="M146.00512,115.849282 C146.00512,115.849282 136.494895,121.157345 134.278458,122.287214 C132.062022,123.415978 140.488902,156.555481 142.363753,157.975824 C144.237498,159.396168 160.738618,158.219911 162.616785,156.430677 C164.496058,154.641442 161.175273,149.150037 162.801396,138.155077 C164.426415,127.159014 157.842327,117.667233 156.996655,117.688217 C156.150982,117.709202 150.630342,115.849282 150.630342,115.849282 L146.00512,115.849282" id="Fill-40" fill="#A8CEFF"></path><path d="M142.363753,157.975824 C144.237498,159.396168 156.044858,159.427093 161.07136,157.865378 C161.638458,157.688663 164.214167,156.663719 164.273862,155.69952 C163.668073,155.58576 161.259287,155.87513 160.282065,155.649819 C156.882793,154.870066 155.010153,150.663155 155.010153,150.663155 C155.010153,150.663155 153.138618,149.989431 148.951156,148.217867 C144.763695,146.446304 146.488204,141.080808 146.389818,138.718355 C146.290327,136.355902 142.250996,128.627953 134.664262,122.77097 L133.968931,123.08243 C133.427258,128.467806 140.629295,156.66151 142.363753,157.975824" id="Fill-41" fill="#93BBF0"></path><path d="M207.699433,131.97559 L184.801047,131.97559 L174.371084,154.14885 L199.595345,154.14885 L209.035927,134.077389 C209.495796,133.098832 208.781673,131.97559 207.699433,131.97559" id="Fill-42" fill="#75A1DE"></path><path d="M175.73632,154.463623 L161.956829,154.463623 C161.102313,154.463623 160.409193,153.771122 160.409193,152.91737 C160.409193,152.063618 161.102313,151.371118 161.956829,151.371118 L174.749149,151.371118 L183.39712,132.775223 C183.757498,131.999888 184.678342,131.66413 185.453265,132.024186 C186.228189,132.384242 186.564247,133.303158 186.203869,134.077389 L177.139142,153.569005 C176.885993,154.114611 176.338793,154.463623 175.73632,154.463623" id="Fill-43" fill="#3E6BAB"></path><path d="M151.840815,149.727672 C157.819113,150.843183 159.288262,152.213825 162.547142,152.738447 C166.240465,153.333754 165.8016,154.14885 163.057862,154.14885 C160.315229,154.14885 153.420509,154.255983 151.054836,153.730257 C148.688058,153.205636 151.840815,149.727672 151.840815,149.727672" id="Fill-44" fill="#F09959"></path><path d="M133.531171,122.909028 C128.950167,137.543203 122.455622,154.14885 123.490327,154.14885 C124.525033,154.14885 150.830429,155.211346 151.865135,154.326669 C152.89984,153.441991 152.603578,150.045758 152.456553,149.602868 C152.308422,149.159977 137.500858,146.534661 137.500858,146.534661 C137.500858,146.534661 139.45088,142.737507 140.190429,135.317704 C140.928873,127.897901 134.400058,120.133505 133.531171,122.909028" id="Fill-45" fill="#A8CEFF"></path><path d="M149.488407,103.13246 L145.7984,116.605841 C145.7984,116.605841 152.033164,126.330664 153.747724,125.466972 C155.462284,124.602175 152.789295,117.562308 152.789295,116.605841 C152.789295,115.649373 155.462284,105.777656 155.462284,105.777656 L149.488407,103.13246" id="Fill-46" fill="#F09959"></path><path d="M152.917527,117.292819 C152.837935,116.973628 152.789295,116.733959 152.789295,116.605841 C152.789295,115.649373 155.462284,105.777656 155.462284,105.777656 L149.488407,103.13246 L148.26688,107.591189 C149.333644,112.196812 151.25824,115.263915 152.917527,117.292819" id="Fill-47" fill="#E38540"></path><path d="M163.29664,102.909358 C163.999709,106.815854 163.536524,112.00574 160.064291,113.324472 C156.590953,114.644309 152.409018,112.1195 150.720989,107.687278 C149.034065,103.253951 150.481105,98.5908955 153.954444,97.2710586 C157.426676,95.9523262 162.456495,98.2418843 163.29664,102.909358" id="Fill-48" fill="#F09959"></path><path d="M151.544553,105.10835 C152.030953,106.47347 151.608669,107.871723 150.600495,108.230675 C149.59232,108.588522 148.379636,107.772322 147.893236,106.406097 C147.406836,105.040977 147.82912,103.642723 148.837295,103.283772 C149.845469,102.925925 151.058153,103.742125 151.544553,105.10835" id="Fill-49" fill="#F09959"></path><path d="M163.337542,98.0011107 C162.154705,107.169283 151.006196,105.987504 151.006196,105.987504 C151.006196,105.987504 148.706851,102.967894 147.672145,104.551699 C146.63744,106.135503 149.107025,95.2565126 155.504291,94.9141282 C157.606865,94.8014726 163.337542,98.0011107 163.337542,98.0011107" id="Fill-50" fill="#303C60"></path><path d="M152.005527,94.124435 C152.005527,97.2511783 149.301585,99.7848233 145.966429,99.7848233 C142.632378,99.7848233 139.928436,97.2511783 139.928436,94.124435 C139.928436,90.9987961 142.632378,88.4643779 145.966429,88.4643779 C149.301585,88.4643779 152.005527,90.9987961 152.005527,94.124435" id="Fill-51" fill="#303C60"></path><polyline id="Fill-52" fill="#2E5B9A" points="133.939084 220.766927 135.319796 220.766927 144.236393 179.491927 141.198604 179.491927 133.939084 220.766927"></polyline><polyline id="Fill-53" fill="#2E5B9A" points="176.869411 220.766927 175.488698 220.766927 165.111796 178.032927 168.149585 178.032927 176.869411 220.766927"></polyline><path d="M149.694022,181.038179 C144.162327,181.038179 140.658036,180.046369 138.421702,177.869466 C135.650327,175.171256 135.076596,170.991957 135.067753,165.546939 C135.06112,161.261611 134.959418,158.470625 134.727273,156.214201 C134.639942,155.364867 135.257891,154.604994 136.107985,154.517741 C136.95808,154.430489 137.718633,155.047885 137.805964,155.897219 C138.049164,158.262986 138.156393,161.146746 138.163025,165.541417 C138.171869,171.060433 138.872727,173.990582 140.58176,175.653908 C142.336116,177.361412 145.50656,178.064957 150.860276,177.931317 C156.030487,177.803198 159.590051,177.080878 162.448756,176.499929 C166.210618,175.736743 168.927825,175.18451 172.150225,176.723031 C172.921833,177.091922 173.247942,178.014151 172.879825,178.785069 C172.510604,179.555986 171.586444,179.881803 170.815942,179.512912 C168.528756,178.421699 166.587578,178.815994 163.0656,179.530583 C160.0864,180.135831 156.379811,180.887972 150.936553,181.022717 C150.512058,181.032657 150.097513,181.038179 149.694022,181.038179" id="Fill-54" fill="#2E5B9A"></path><path d="M137.127215,154.326669 L145.594996,154.678993 L143.340975,178.034032 C143.340975,178.034032 137.028829,174.009358 137.127215,169.677642 C137.226705,165.347031 137.127215,154.326669 137.127215,154.326669" id="Fill-55" fill="#2E5B9A"></path><path d="M178.924451,156.502467 C186.083375,155.416777 188.51648,155.759161 192.898502,163.906807 C197.279418,172.053348 203.111796,186.721762 206.465745,188.617025 C211.516567,191.469861 213.190225,198.464444 215.264058,198.150776 C217.337891,197.836003 218.67328,198.751605 216.415942,200.625884 C214.159709,202.499059 210.515025,204.095012 209.269178,203.762568 C208.023331,203.430123 207.056058,198.05027 203.8016,196.304109 C200.547142,194.556843 201.525469,193.122142 201.738822,191.576994 C201.952175,190.031846 192.238545,182.919085 184.914909,174.072312 C180.441135,168.665951 178.136262,165.098526 177.794676,161.864649 C177.453091,158.630773 178.924451,156.502467 178.924451,156.502467" id="Fill-56" fill="#F09959"></path><path d="M196.672524,186.044724 C195.00992,181.830082 193.341789,174.874155 191.774255,168.496968 C189.544553,159.427093 187.207622,157.274489 185.727418,156.306976 C183.937687,155.858563 181.817425,156.063994 178.924451,156.502467 C178.924451,156.502467 177.453091,158.630773 177.794676,161.864649 C178.136262,165.098526 180.441135,168.665951 184.914909,174.072312 C188.770735,178.729845 193.288727,182.906936 196.672524,186.044724" id="Fill-57" fill="#E38540"></path><path d="M181.104407,163.67266 C181.104407,163.67266 179.199709,178.032927 177.425455,179.493031 C176.157498,180.536752 175.258764,180.606333 174.371084,176.323214 C173.484509,172.040095 175.750691,156.055158 175.750691,156.055158 L181.104407,163.67266" id="Fill-58" fill="#2E5B9A"></path><polyline id="Fill-59" fill="#F09959" points="179.586618 171.443683 161.956829 174.403652 171.910342 160.143891 179.484916 158.603161 184.027229 159.646882 179.586618 171.443683"></polyline><path d="M201.738822,191.576994 C201.167302,193.878701 201.23584,195.579579 202.229644,196.432227 C203.222342,197.28377 206.974255,203.618987 206.974255,203.618987 L208.143825,203.441168 L205.436567,197.64493 L201.738822,191.576994" id="Fill-60" fill="#2E5B9A"></path><path d="M209.269178,203.762568 C210.515025,204.095012 214.159709,202.499059 216.415942,200.625884 C218.67328,198.751605 217.337891,197.836003 215.264058,198.150776 C215.147985,198.168447 215.031913,198.160716 214.916945,198.133104 C213.881135,200.444752 210.474124,202.178763 209.375302,199.736789 C208.285324,197.316904 203.618095,192.500328 201.737716,191.469861 C201.742138,191.507413 201.743244,191.54386 201.738822,191.576994 C201.525469,193.122142 200.547142,194.556843 203.8016,196.304109 C207.056058,198.05027 208.023331,203.430123 209.269178,203.762568" id="Fill-61" fill="#2E5B9A"></path><path d="M142.9408,157.077894 C136.686138,168.292642 140.95872,175.419761 148.560931,176.146499 C156.163142,176.872134 168.163956,175.486029 175.159273,169.677642 C182.155695,163.87036 187.897425,157.728424 187.095971,156.812822 C186.293411,155.896115 142.9408,157.077894 142.9408,157.077894" id="Fill-62" fill="#E38540"></path><path d="M178.41152,165.445328 C179.691636,161.606204 181.168524,158.660593 184.027229,158.606475 C187.03296,158.551251 188.882385,160.112966 189.010618,165.025631 C189.163171,170.875988 189.369891,190.25053 189.099055,198.865365 C188.894545,205.387237 190.797033,207.474678 190.635636,214.272666 C190.515142,219.392971 195.978298,216.806311 193.867985,219.462552 C192.416524,221.288235 188.096407,220.690718 185.443316,220.353856 C183.078749,220.053442 186.667055,212.973814 183.394909,211.08076 C180.587055,209.457195 180.531782,206.81973 182.304931,204.82396 C184.07808,202.827085 182.501702,196.921505 181.319971,192.786384 C180.137135,188.652368 178.303185,184.179281 177.099345,174.403652 C176.755549,171.61598 177.628858,167.79011 178.41152,165.445328" id="Fill-63" fill="#F09959"></path><path d="M191.998662,217.371798 C191.093295,217.647915 189.976785,217.952747 189.005091,217.984777 C187.034065,218.04994 186.442647,215.884082 186.312204,212.942889 C186.197236,210.373901 184.330124,206.328242 182.414371,204.68811 C182.378996,204.734498 182.343622,204.780885 182.304931,204.82396 C180.531782,206.81973 180.587055,209.457195 183.394909,211.08076 C186.667055,212.973814 183.078749,220.053442 185.443316,220.353856 C188.096407,220.690718 192.416524,221.288235 193.867985,219.462552 C195.239855,217.736272 193.537455,217.599318 191.998662,217.371798" id="Fill-64" fill="#2E5B9A"></path><path d="M182.748218,204.091699 C182.748218,204.091699 179.874036,207.090324 180.137135,208.337266 C180.400233,209.584208 181.285702,212.734145 181.433833,215.162866 C181.581964,217.590482 181.713513,220.378155 181.713513,220.378155 C181.713513,220.378155 182.748218,220.378155 182.830022,220.084367 C182.912931,219.791683 183.487767,210.214858 183.487767,210.214858 L182.748218,204.091699" id="Fill-65" fill="#2E5B9A"></path><path d="M139.928436,156.055158 C139.928436,156.055158 136.218531,171.786068 140.905658,176.146499 C145.592785,180.506931 165.057629,176.584972 169.641949,176.323214 C172.746065,176.146499 175.750691,179.931504 175.750691,179.931504 C175.750691,179.931504 173.582895,171.154313 175.060887,164.066955 C176.53888,156.979596 178.924451,156.502467 178.924451,156.502467 L175.750691,156.055158 L139.928436,156.055158" id="Fill-66" fill="#75A1DE"></path><path d="M139.088291,151.942127 C140.674618,155.305226 137.380364,161.113612 138.534458,162.786878 C139.689658,164.460144 146.299171,163.021025 150.630342,159.538644 C154.961513,156.055158 163.158458,155.289763 163.158458,155.289763 L139.088291,151.942127" id="Fill-67" fill="#A8CEFF"></path><path d="M145.7984,180.605229 C158.902458,181.096716 172.69632,180.864778 172.69632,178.913187 C172.69632,176.9627 172.104902,175.584326 161.956829,176.37181 C151.808756,177.159295 144.911825,178.242776 141.857455,177.553589 C138.803084,176.864402 145.7984,180.605229 145.7984,180.605229" id="Fill-68" fill="#2E5B9A"></path><path d="M285.543331,157.712962 L100.908102,157.712962 C100.119913,157.712962 99.48096,157.07458 99.48096,156.287096 L99.48096,155.574715 C99.48096,154.787231 100.119913,154.14885 100.908102,154.14885 L285.543331,154.14885 C286.33152,154.14885 286.970473,154.787231 286.970473,155.574715 L286.970473,156.287096 C286.970473,157.07458 286.33152,157.712962 285.543331,157.712962" id="Fill-69" fill="#2E5B9A"></path><path d="M310.076684,106.380694 C311.345745,110.852677 308.244945,115.46051 304.829091,116.429126 C301.414342,117.396638 298.976815,114.358252 297.706647,109.88627 C296.437585,105.414287 298.177571,101.005258 301.59232,100.036642 C305.008175,99.0691293 308.806516,101.908711 310.076684,106.380694" id="Fill-70" fill="#F09959"></path><path d="M290.925789,193.031576 C290.925789,193.031576 299.679884,206.616508 300.861615,207.206293 C302.044451,207.797182 305.000436,207.945181 303.891665,210.159635 C302.782895,212.374089 302.339607,221.086117 301.304902,221.529008 C300.271302,221.971899 291.403345,223.005679 292.733207,221.529008 C294.064175,220.052337 294.882211,220.791225 295.553222,218.132775 C296.224233,215.47543 297.167185,210.454527 295.911389,209.421852 C294.654487,208.388071 286.970473,199.085154 286.970473,199.085154 L290.925789,193.031576" id="Fill-71" fill="#F09959"></path><path d="M246.866793,198.865365 C246.866793,198.865365 236.225687,216.387719 234.254662,217.962687 C232.284742,219.537656 225.781353,221.901213 231.101905,222.294403 C236.422458,222.688697 238.984902,220.52284 242.334429,219.537656 C245.683956,218.553577 249.822778,217.962687 248.2464,215.40364 C246.670022,212.844592 247.324451,207.257098 250.722618,203.712867 C254.121891,200.168635 246.866793,198.865365 246.866793,198.865365" id="Fill-72" fill="#F09959"></path><path d="M301.170036,158.233165 C301.170036,158.233165 274.82816,157.545083 264.383825,166.108008 C258.275084,175.362329 243.496262,202.664729 242.347695,205.673294 C243.135884,206.460778 247.569862,207.882226 249.540887,207.684527 C255.354473,200.759525 263.037382,194.772214 266.093964,189.34045 C269.859142,182.646282 271.019869,179.29975 277.128611,178.708861 C283.237353,178.117971 297.031215,176.149813 301.170036,176.149813 C305.307753,176.149813 301.170036,158.233165 301.170036,158.233165" id="Fill-73" fill="#6791C9"></path><polyline id="Fill-74" fill="#2E5B9A" points="324.141382 222.341895 322.760669 222.341895 312.859113 181.066896 315.896902 181.066896 324.141382 222.341895"></polyline><polyline id="Fill-75" fill="#2E5B9A" points="282.777484 222.341895 284.159302 222.341895 295.521164 179.607896 292.483375 179.607896 282.777484 222.341895"></polyline><path d="M316.176582,156.430677 L300.861615,159.071455 C300.861615,159.071455 280.510196,159.25811 271.207796,160.989912 C262.743331,162.564881 261.496378,172.172631 271.207796,185.403029 C276.724015,192.91892 281.387927,198.913962 290.925789,205.673294 C293.352262,203.893999 294.279738,203.220275 294.950749,198.93826 C294.25984,197.992837 292.473425,192.074004 291.918487,190.915419 C286.643258,179.897266 279.601513,175.890263 279.504233,174.806782 C280.685964,172.88722 310.82176,184.81214 316.813324,177.797676 C322.534051,171.100194 316.176582,156.430677 316.176582,156.430677" id="Fill-76" fill="#75A1DE"></path><path d="M316.813324,121.790204 C312.77952,121.223613 308.671651,121.990113 304.829091,124.768949 C301.471825,128.188376 297.673484,133.826675 297.906735,143.127383 C298.201891,154.939647 296.077207,155.698416 298.293644,158.94665 C307.539665,162.761476 323.352087,179.150647 319.628916,161.579697 C316.931607,148.857353 325.541993,139.374408 318.596422,125.261541 C318.030429,124.112896 317.324044,122.99849 316.813324,121.790204" id="Fill-77" fill="#F37168"></path><path d="M297.903418,147.572859 C297.724335,153.731362 296.853236,155.544895 297.51872,157.475501 C301.28832,157.859856 308.18304,159.367452 309.906444,161.777397 C311.876364,164.533039 313.847389,164.927334 312.927651,162.892907 C312.007913,160.858481 309.578124,157.970302 313.322298,148.061033 C317.065367,138.151764 318.839622,131.457595 315.160669,124.566832 L297.903418,147.572859" id="Fill-78" fill="#D54A41"></path><path d="M316.813324,121.790204 C314.329367,115.91555 313.719156,109.315261 313.719156,109.315261 L307.216873,111.234823 C307.216873,111.234823 310.911302,119.502855 307.365004,122.456197 C306.611084,123.083534 305.735564,123.845616 304.829091,124.768949 C308.671651,121.990113 312.77952,121.223613 316.813324,121.790204" id="Fill-79" fill="#F09959"></path><path d="M313.914822,110.879184 C313.530124,110.5368 313.048145,110.109372 312.541847,109.662063 L307.237876,111.228196 L307.226822,111.256912 C307.355055,111.549595 308.70592,114.699532 308.883898,117.729083 C310.464698,116.770406 312.194735,115.208691 314.173498,112.479556 C314.066269,111.874308 313.981149,111.334224 313.914822,110.879184" id="Fill-80" fill="#E38540"></path><path d="M312.241164,123.636871 C305.54432,125.977235 306.287185,133.027042 300.123171,143.42338 C296.932829,148.803234 293.970211,148.722608 293.970211,148.722608 C293.970211,148.722608 286.4896,148.783354 277.440349,147.677783 C271.773789,146.985283 271.414516,148.670698 275.355462,150.078892 C283.30368,152.91737 291.551476,155.973428 298.201891,155.235644 C304.852305,154.496757 316.226327,137.544308 316.813324,133.130861 C317.624727,127.027582 315.613905,122.458406 312.241164,123.636871" id="Fill-81" fill="#F09959"></path><path d="M308.794356,182.614252 C308.378705,182.614252 307.953105,182.60873 307.516451,182.597685 C302.073193,182.462941 298.366604,181.710799 295.387404,181.105552 C291.865425,180.390962 289.924247,179.996668 287.637062,181.088985 C286.86656,181.456772 285.9424,181.130955 285.574284,180.360037 C285.205062,179.58912 285.531171,178.666891 286.302778,178.297999 C289.525178,176.759478 292.243491,177.311711 296.004247,178.074897 C298.864058,178.655846 302.422516,179.378167 307.592727,179.506285 C313.415156,179.649866 316.976931,178.777337 318.796509,176.761687 C320.421527,174.961407 320.900189,171.960573 320.302138,167.316294 C320.09984,165.743534 319.897542,164.435846 319.719564,163.282784 C319.217687,160.045594 318.887156,157.906243 319.296175,154.609412 C319.676451,151.535683 320.697891,147.435905 323.061353,139.480437 C323.304553,138.662027 324.166807,138.195943 324.985949,138.438925 C325.805091,138.681908 326.272698,139.542287 326.029498,140.360696 C321.606575,155.241167 321.830982,156.694644 322.778356,162.810072 C322.959651,163.981911 323.165265,165.310583 323.371985,166.921999 C324.093847,172.527164 323.369775,176.312169 321.094749,178.832561 C318.75008,181.430265 314.927418,182.614252 308.794356,182.614252" id="Fill-82" fill="#2E5B9A"></path><path d="M247.58976,213.634285 C240.529222,217.083532 236.729775,219.061631 234.465804,218.872767 C233.931869,218.828589 233.488582,218.773365 233.117149,218.715933 C230.598924,220.202544 226.579491,221.95975 231.101905,222.294403 C236.422458,222.688697 238.984902,220.52284 242.334429,219.537656 C245.685062,218.553577 249.822778,217.962687 248.2464,215.40364 C247.944611,214.913257 247.724625,214.311323 247.58976,213.634285" id="Fill-83" fill="#D54A41"></path><path d="M301.632116,207.494558 C301.45856,213.079843 300.690269,218.614322 297.271098,219.660252 C296.365731,219.937473 295.538851,219.977233 294.808145,219.88004 C294.270895,220.543824 293.614255,220.551556 292.733207,221.529008 C291.403345,223.005679 300.271302,221.971899 301.304902,221.529008 C302.339607,221.086117 302.782895,212.374089 303.891665,210.159635 C304.80256,208.340579 302.969716,207.91536 301.632116,207.494558" id="Fill-84" fill="#D54A41"></path><path d="M274.434618,154.463623 L252.00384,154.463623 C251.401367,154.463623 250.854167,154.114611 250.601018,153.569005 L241.536291,134.077389 C241.175913,133.303158 241.511971,132.384242 242.286895,132.024186 C243.062924,131.66413 243.982662,131.999888 244.34304,132.775223 L252.991011,151.371118 L274.434618,151.371118 C275.29024,151.371118 275.982255,152.063618 275.982255,152.91737 C275.982255,153.771122 275.29024,154.463623 274.434618,154.463623" id="Fill-85" fill="#75A1DE"></path><path d="M279.127273,147.872169 C274.594909,147.807006 270.100131,145.107691 267.867113,145.501985 C265.634095,145.895175 258.342516,150.948107 259.262255,151.145807 C260.181993,151.342402 265.962415,148.349299 266.159185,148.302911 C266.355956,148.257628 267.604015,150.377098 270.691549,151.154642 C273.779084,151.933291 270.713658,148.842995 280.283578,151.731174 C286.506182,153.608766 279.127273,147.872169 279.127273,147.872169" id="Fill-86" fill="#F09959"></path><path d="M316.146735,116.429126 L316.813324,121.790204 C316.813324,121.790204 310.947782,122.138111 308.029382,123.779348 C305.110982,125.41948 300.804131,130.159848 300.804131,130.159848 L304.322793,124.107374 L304.829091,120.235116 L316.146735,116.429126" id="Fill-87" fill="#F2E5DE"></path><path d="M313.650618,122.991863 C309.294022,122.175663 307.278778,126.075532 304.454342,132.441675 C301.629905,138.807817 296.807913,146.539079 295.849484,147.536412 C294.891055,148.53264 279.691055,147.536412 279.691055,147.536412 C279.691055,147.536412 279.231185,151.933291 279.691055,152.457912 C280.149818,152.982534 282.777484,152.91737 282.777484,152.91737 C282.777484,152.91737 283.828771,153.75566 284.813731,154.419444 C285.799796,155.083228 294.141556,156.33017 298.01728,156.133575 C301.891898,155.935876 305.439302,155.607849 305.964393,155.01696 C306.490589,154.427175 317.065367,138.151764 317.723113,132.310243 C318.379753,126.469827 315.873687,123.408247 313.650618,122.991863" id="Fill-88" fill="#F2E5DE"></path><path d="M300.804131,96.2151891 C292.565178,96.6094835 293.857455,108.992757 293.857455,108.992757 C293.857455,108.992757 295.997615,109.653227 300.480233,108.914339 C300.135331,107.585667 300.283462,104.189434 300.283462,104.189434 C300.283462,104.189434 300.804131,106.946181 301.465193,108.619447 C302.413673,109.053502 303.484858,108.668043 305.307753,108.228466 C306.244073,112.162574 308.889425,113.8259 310.70016,114.3947 C312.701033,115.023141 314.819084,115.771969 317.183651,114.591295 C319.548218,113.409516 318.248204,101.334389 316.992407,98.9067728 C315.107607,95.2609305 311.974749,91.9994423 306.555811,93.7213049 C303.838604,94.5861017 300.804131,96.2151891 300.804131,96.2151891" id="Fill-89" fill="#303C60"></path><path d="M315.131927,110.922259 L318.500247,115.838237 C318.500247,115.838237 314.767127,125.157721 325.623796,129.37899 C334.126953,132.685762 333.125411,138.51182 329.282851,144.371012 C325.441396,150.230204 331.582196,155.347195 331.582196,155.347195 C331.582196,155.347195 332.518516,148.856249 340.780684,147.631396 C352.046371,145.961443 355.235607,130.850139 346.821993,123.294487 C339.858735,117.042105 337.740684,122.219842 333.027025,116.609154 C328.314473,110.998467 319.417775,114.78789 319.417775,114.78789 L316.156684,110.036477 L315.131927,110.922259" id="Fill-90" fill="#303C60"></path><path d="M350.696611,138.486417 C350.653498,138.486417 350.60928,138.475372 350.567273,138.453283 C350.436829,138.381493 350.389295,138.218032 350.461149,138.087705 C353.299956,132.903341 350.982924,126.622243 349.817775,124.921365 C349.695069,124.741337 349.577891,124.559101 349.45408,124.366923 C348.308829,122.579897 346.883898,120.356607 339.286109,118.990383 C337.465425,118.663461 335.989644,117.57998 334.426531,116.433544 C331.185338,114.056733 327.510807,111.362941 319.529425,115.031977 C319.39456,115.094931 319.234269,115.03529 319.172364,114.900545 C319.110458,114.7658 319.169047,114.605653 319.305018,114.543803 C327.574924,110.741126 331.38432,113.535425 334.744902,116.000593 C336.256058,117.108373 337.684305,118.155407 339.381178,118.461344 C347.210007,119.869538 348.705687,122.20217 349.908422,124.076449 C350.028916,124.265313 350.143884,124.444236 350.262167,124.616533 C350.964131,125.642582 351.831913,127.76647 352.186764,130.199609 C352.495185,132.309139 352.527244,135.435882 350.933178,138.34615 C350.884538,138.435612 350.79168,138.486417 350.696611,138.486417" id="Fill-91" fill="#303C60"></path><path d="M313.332247,115.928803 C312.794996,115.928803 312.213527,115.882416 311.58784,115.788536 C308.715869,115.358899 304.86336,113.727602 304.560465,104.55943 C304.554938,104.410327 304.672116,104.286627 304.820247,104.281104 C304.973905,104.274478 305.093295,104.392656 305.098822,104.541758 C305.223738,108.336704 305.978764,111.145361 307.340684,112.890417 C308.3776,114.217985 309.752785,114.970127 311.667433,115.256183 C314.34816,115.658209 316.126836,115.161199 316.952611,113.779512 C317.028887,113.652499 317.194705,113.610529 317.321833,113.686737 C317.450065,113.762945 317.490967,113.928615 317.414691,114.055629 C316.669615,115.301466 315.299956,115.928803 313.332247,115.928803" id="Fill-92" fill="#303C60"></path><path d="M56.2038516,122.434108 C46.6412276,127.897901 33.3405091,150.606827 36.1483636,154.313415 C38.9563287,158.018899 54.030528,148.274195 54.030528,148.274195 L56.2038516,122.434108" id="Fill-93" fill="#96CFE0"></path><path d="M74.0693236,96.0992202 C70.4176756,95.9998183 71.7727418,93.2883542 67.5736727,94.3707309 C65.36608,94.9406353 66.9957411,95.8474019 64.1278604,95.5525095 C61.2597585,95.2565126 59.8485353,94.9616202 59.4870516,96.8314812 C59.1254575,98.7024466 58.9506851,99.2933359 57.5712989,99.5882283 C56.1919127,99.8831208 55.5689891,102.344976 57.5712989,104.018242 C59.5737193,105.691508 58.600256,106.380694 58.1568582,107.759068 C57.7135709,109.137442 59.2248378,109.235739 60.0456378,110.514711 C60.8664378,111.794787 59.2899491,112.036665 60.4723433,113.146653 C61.6546269,114.255537 63.3130298,114.15724 63.3130298,114.15724 L68.2904495,104.622384 L74.0693236,96.0992202" id="Fill-94" fill="#303C60"></path><path d="M148.463651,210.545094 C148.463651,210.545094 153.784204,210.693092 157.92192,209.068423 C162.059636,207.443753 164.867491,204.934406 164.129047,207.886644 C163.390604,210.839986 159.991331,215.906172 157.035345,216.399868 C154.07936,216.893564 153.044655,220.142903 151.419636,220.142903 C149.793513,220.142903 147.428945,216.399868 143.291229,214.530007 C139.519418,212.825816 148.463651,210.545094 148.463651,210.545094" id="Fill-95" fill="#2E5B9A"></path><path d="M106.535971,210.046979 C106.535971,210.046979 108.774516,213.129544 112.667927,215.274417 C116.689571,217.488871 121.330269,218.554681 118.452771,219.556432 C115.576378,220.558183 111.369018,221.336831 107.266676,220.146217 C104.388073,219.31124 101.014225,219.136735 100.123229,217.778242 C99.2322327,216.419748 101.172305,213.008053 100.365324,207.909838 C99.7186327,203.824418 106.535971,210.046979 106.535971,210.046979" id="Fill-96" fill="#2E5B9A"></path><path d="M81.6234473,160.494007 C81.6234473,160.494007 112.442415,172.023528 114.926371,175.247464 C117.409222,178.470296 149.804567,207.831421 149.804567,209.996174 C149.804567,212.162032 144.287244,216.100558 144.287244,216.100558 C144.287244,216.100558 116.502749,199.069692 109.605818,190.407365 C102.707782,181.743933 85.8750255,177.567947 76.926592,176.766105 C67.9777164,175.963158 81.6234473,160.494007 81.6234473,160.494007" id="Fill-97" fill="#3E6BAB"></path><path d="M82.8051782,160.494007 C82.8051782,160.494007 103.890618,159.706523 108.422982,160.494007 C112.955345,161.281491 122.896698,161.272656 116.394415,179.607896 C111.297164,193.979208 109.615767,212.174181 109.615767,212.174181 L99.48096,214.661438 C99.48096,214.661438 99.8833455,181.943842 104.718604,173.232918 C101.197731,173.812763 94.7341382,174.943736 85.7755345,177.503888 C69.1573469,182.251988 60.0456378,179.874072 60.0456378,179.874072 L57.5712989,171.210641 L82.8051782,160.494007" id="Fill-98" fill="#4476BD"></path><polyline id="Fill-99" fill="#A86B48" points="65.1976087 106.103473 60.0456378 121.31197 66.5543331 125.593985 70.2427927 112.453049 65.1976087 106.103473"></polyline><path d="M67.1364655,123.519798 L70.2427927,112.453049 L65.1976087,106.103473 L63.3130298,111.666669 C63.9634793,116.690885 65.5347724,120.84699 67.1364655,123.519798" id="Fill-100" fill="#7A4E34"></path><path d="M78.3393629,108.677984 C78.5065076,113.303487 76.2323665,117.307177 72.6177513,117.662815 C69.0032465,118.019557 65.7044596,114.573623 65.2498967,109.966896 C64.7952233,105.361272 67.3568931,101.338807 70.9713978,100.982064 C74.5860131,100.626426 78.0754909,101.378568 78.3393629,108.677984" id="Fill-101" fill="#A86B48"></path><path d="M57.5712989,120.86908 C41.7571084,131.539326 51.5931113,148.782249 55.0656756,161.383102 C58.0234298,172.115198 57.9270342,178.601727 58.3703215,178.601727 C58.8137193,178.601727 69.6897338,176.977058 75.8967505,171.36637 C82.10432,165.755683 86.3006255,160.320606 86.3006255,160.320606 C86.3006255,160.320606 78.3479855,158.905785 75.7489513,148.627624 C74.4295913,143.410127 75.0294109,140.577171 72.0216902,132.308034 C69.0138589,124.040002 57.5712989,120.86908 57.5712989,120.86908" id="Fill-102" fill="#A2DFF2"></path><path d="M57.5712989,120.86908 L59.2650764,116.728437 C59.2650764,116.728437 64.6350429,120.272668 66.7779665,121.945934 C68.9208902,123.6192 70.2427927,124.013494 70.2427927,124.013494 C70.2427927,124.013494 71.0173847,129.948895 70.5142924,129.409915 C64.1762793,122.622972 57.5712989,120.86908 57.5712989,120.86908" id="Fill-103" fill="#A2DFF2"></path><polyline id="Fill-104" fill="#2E5B9A" points="50.5626065 222.341895 51.9434298 222.341895 61.8450967 181.066896 58.8073076 181.066896 50.5626065 222.341895"></polyline><polyline id="Fill-105" fill="#2E5B9A" points="91.9251782 222.341895 90.5444655 222.341895 79.1828247 179.607896 82.2203927 179.607896 91.9251782 222.341895"></polyline><path d="M65.9445644,182.613148 C60.4132015,182.613148 56.9089105,181.621337 54.6726865,179.444435 C51.9005382,176.746224 51.3269178,172.566925 51.3186269,167.121908 C51.3011607,155.674117 50.6675142,153.307247 47.4417978,146.317081 C47.0839622,145.541746 47.4231156,144.62283 48.1993658,144.264983 C48.975616,143.908241 49.8950225,144.246207 50.2527476,145.022647 C53.6623011,152.411525 54.3955491,155.127407 54.4138996,167.11749 C54.4223011,172.635402 55.1230487,175.56555 56.8325236,177.228876 C58.5862167,178.936381 61.7561076,179.639925 67.1109295,179.506285 C72.2811404,179.378167 75.8400407,178.655846 78.6996305,178.074897 C82.4602764,177.311711 85.1785891,176.759478 88.4009891,178.297999 C89.1725964,178.666891 89.4987055,179.58912 89.1294836,180.360037 C88.7613673,181.130955 87.8372073,181.456772 87.0667055,181.088985 C84.77952,179.996668 82.8383418,180.390962 79.3161425,181.105552 C76.3373847,181.710799 72.6303535,182.462941 67.1873164,182.597685 C66.7623796,182.60873 66.3477236,182.613148 65.9445644,182.613148" id="Fill-106" fill="#2E5B9A"></path><path d="M134.276247,154.284699 L111.844364,154.284699 C110.989847,154.284699 110.296727,153.593303 110.296727,152.738447 C110.296727,151.884694 110.989847,151.192194 111.844364,151.192194 L133.287971,151.192194 L141.937047,132.5963 C142.297425,131.822069 143.217164,131.485207 143.992087,131.845263 C144.768116,132.205319 145.104175,133.124235 144.743796,133.89957 L135.679069,153.390082 C135.42592,153.935688 134.877615,154.284699 134.276247,154.284699" id="Fill-107" fill="#3E6BAB"></path><path d="M58.1568582,136.404499 C58.1568582,136.404499 62.0980247,148.414462 66.9751796,153.385664 C71.8523345,158.356865 81.6676655,160.027922 84.7408291,159.832432 C82.2911418,158.848353 77.6252393,156.047427 75.7489513,148.627624 C74.4295913,143.410127 75.0294109,140.577171 72.0216902,132.308034 C69.7888931,126.170517 62.9093178,122.841656 59.5115927,121.533968 C63.752448,124.577877 69.0547607,129.588839 70.6842007,133.40256 C72.4928349,137.635978 58.1568582,136.404499 58.1568582,136.404499" id="Fill-108" fill="#96CFE0"></path><path d="M112.554065,146.944418 C112.554065,146.944418 119.351505,143.844182 120.091055,144.139074 C120.829498,144.435071 128.366487,148.982158 128.366487,149.735403 C128.366487,150.488649 121.716073,146.927851 121.716073,146.927851 C121.716073,146.927851 122.455622,148.896009 122.012335,149.840328 C121.569047,150.783542 116.45632,150.783542 111.844364,150.488649 C107.233513,150.193757 112.554065,146.944418 112.554065,146.944418" id="Fill-109" fill="#A86B48"></path><path d="M58.3741905,127.12588 C52.1075898,139.95867 73.6040378,152.967071 86.3570036,154.123447 C99.1106327,155.280927 114.261993,151.110464 114.261993,151.110464 L112.554065,146.944418 C112.554065,146.944418 87.0036945,143.613348 86.3570036,143.146159 C85.7103127,142.680075 60.6693353,122.426377 58.3741905,127.12588" id="Fill-110" fill="#A2DFF2"></path><path d="M66.5219433,106.536424 C67.1028596,108.062796 66.676928,109.639974 65.5706996,110.060775 C64.4644713,110.481577 63.0969135,109.58475 62.5159971,108.058378 C61.9351913,106.532006 62.3611229,104.954829 63.4672407,104.534027 C64.5734691,104.11433 65.9411375,105.010052 66.5219433,106.536424" id="Fill-111" fill="#A86B48"></path><path d="M78.3479855,96.7663177 C80.0791273,96.0439969 82.0291491,95.2708707 81.4255709,98.2098548 C81.1635782,99.4899309 81.4255709,99.1287705 81.88544,100.310549 C82.3453091,101.491223 80.7269236,102.418975 80.2018327,103.075028 C79.6756364,103.73108 80.9668073,104.444565 79.91552,105.23205 C78.8643433,106.019534 77.4787665,104.940471 76.4996655,105.23205 C73.5766225,106.103473 73.9378851,103.806184 72.2957324,103.329055 C70.6535796,102.850821 69.8486982,102.92482 69.53696,103.975167 C69.2252218,105.025515 70.6865222,108.480284 69.438464,108.152258 C68.1904058,107.824231 67.9093993,110.613008 67.5736727,112.189081 C67.2379462,113.76405 66.3816611,111.101182 66.4370444,109.299798 C66.5219433,106.536424 65.8353455,105.37563 64.8165585,104.602504 C63.7977716,103.829378 63.3639913,96.7994517 68.2904495,96.5365887 C73.2169076,96.2737258 73.248192,95.7988054 75.3502138,95.3548101 C77.4521251,94.9108148 77.558912,97.0954485 78.3479855,96.7663177" id="Fill-112" fill="#303C60"></path><path d="M354.545804,177.047744 C357.6864,179.912729 356.321164,182.778818 353.998604,188.100135 C351.677149,193.421452 351.267025,213.071007 351.267025,213.071007 L353.179462,212.798204 C353.179462,212.798204 352.906415,192.603043 355.500916,187.144772 C358.096524,181.686501 359.188713,178.95847 361.510167,180.732242 C363.832727,182.506015 354.545804,177.047744 354.545804,177.047744" id="Fill-113" fill="#74B570"></path><path d="M352.820189,173.337842 C353.201571,171.639174 355.466647,169.802447 358.495593,168.242941 C358.045673,170.74787 356.601949,174.84323 358.096524,175.683728 C360.111767,176.815806 358.292189,171.097985 359.070429,167.955779 C361.914764,166.567466 365.337251,165.433179 368.488902,164.868797 C368.483375,164.880946 368.480058,164.891991 368.475636,164.90414 C366.700276,169.407048 364.378822,171.18082 365.33504,171.862276 C366.053585,172.375852 368.396044,167.174922 371.490211,164.508741 C373.811665,164.385041 375.776058,164.698709 376.937891,165.618729 C378.734255,167.039073 379.940305,168.299268 378.133993,172.625462 C377.101498,173.362141 375.765004,173.890075 374.21184,174.045805 C370.115025,174.455562 368.202589,174.591411 371.070138,175.956531 C372.475171,176.624733 374.828684,175.918979 376.737804,175.488238 C376.118749,176.628047 375.357091,177.918063 374.432931,179.388107 C373.845935,180.320277 373.199244,181.128746 372.512756,181.828977 C371.192844,182.0819 370.04096,182.084109 369.431855,181.823455 C367.519418,181.005045 362.603462,178.411759 361.374196,179.504076 C360.171462,180.572095 370.479825,181.249132 369.765702,183.96391 C364.767942,186.839939 359.050531,185.471506 358.040145,182.830728 C356.682647,179.284287 351.671622,178.449311 352.820189,173.337842" id="Fill-114" fill="#9CD499"></path><path d="M363.149556,192.739997 C357.6864,188.645741 352.087273,192.466089 349.218618,196.833148 C346.351069,201.199102 348.399476,211.023327 348.399476,211.023327 C348.399476,211.023327 349.491665,211.023327 349.491665,210.614675 C349.491665,210.204918 346.48704,199.016677 353.589585,193.967059 C358.032407,190.80939 361.23712,192.33024 361.647244,193.831209 C362.056262,195.332179 359.871884,198.061314 359.871884,198.061314 L363.149556,192.739997" id="Fill-115" fill="#74B570"></path><path d="M350.58496,184.32507 C356.048116,184.32507 357.823476,192.78528 356.321164,197.69684 C354.818851,202.609505 352.769338,211.75117 352.769338,211.75117 L351.404102,210.387155 C351.404102,210.387155 356.594211,197.560991 355.364945,191.829917 C354.13568,186.098843 351.131055,185.14348 350.58496,185.14348 C350.038865,185.14348 350.58496,184.32507 350.58496,184.32507" id="Fill-116" fill="#9CD499"></path><path d="M355.167069,197.735497 C355.550662,197.226338 356.026007,196.806641 356.60416,196.527211 C356.528989,196.934759 356.43392,197.32574 356.321164,197.69684 C355.635782,199.935593 354.838749,203.051292 354.17216,205.780427 C354.112465,205.431416 354.018502,204.892437 353.874793,204.061878 C353.840524,203.865283 353.813993,203.652121 353.7952,203.42681 C354.33024,201.608859 354.836538,199.627447 355.167069,197.735497" id="Fill-117" fill="#74B570"></path><path d="M356.660538,197.776362 C367.039651,193.409303 361.570967,187.417575 370.72192,191.374877 C371.3664,191.653202 372.151273,192.356747 372.938356,193.325364 C372.122531,193.556197 371.136465,193.722972 370.038749,193.558406 C367.307171,193.148649 368.263389,195.332179 372.770327,195.877785 C373.619316,195.9805 374.30912,196.122976 374.881745,196.322885 C377.029644,200.443647 377.996916,205.864367 373.453498,207.748586 C372.55808,208.120791 371.45152,208.332848 370.218938,208.41237 C368.817222,207.299068 370.561629,200.855613 368.39936,201.744708 C366.324422,202.599565 369.050473,207.268143 368.676829,208.444399 C366.628422,208.407952 364.360029,208.073299 362.193338,207.536528 C361.335505,207.056085 360.679971,206.412182 360.478778,205.566161 C359.795607,202.700071 364.302545,200.926299 364.439622,198.469967 C364.564538,196.212438 362.786967,203.437855 358.078836,204.501456 C353.820625,202.514521 351.808698,199.817415 356.660538,197.776362" id="Fill-118" fill="#9CD499"></path><path d="M349.263942,190.056144 C350.357236,187.736766 347.488582,187.190055 347.625658,188.963828 C347.746153,190.536587 347.760524,194.356935 346.14656,195.397342 C343.364131,195.095823 339.577949,193.975894 336.715927,192.26839 C336.679447,192.037557 336.714822,191.800096 336.836422,191.557114 C338.065687,189.100781 345.986269,187.054206 343.528844,186.235797 C341.571084,185.583057 338.139753,189.432121 335.375011,191.370459 C333.714618,190.111368 332.602531,188.611503 332.602531,186.937132 C332.602531,184.669664 335.359535,182.103989 338.924625,180.876927 C340.529745,181.039284 342.019898,181.915125 344.347985,183.233858 C347.787055,185.181031 346.991127,182.032199 343.739985,180.164547 C346.546735,180.309232 349.345745,181.507577 351.409629,184.370353 C351.409629,184.370353 351.215069,185.594102 352.510662,187.487157 C356.047011,192.650535 351.965673,195.664623 347.087302,195.469132 C347.363665,194.10843 348.510022,191.658725 349.263942,190.056144" id="Fill-119" fill="#9CD499"></path><path d="M362.821236,192.508059 C365.492015,194.570097 368.457949,196.981146 372.100422,198.617965 C375.742895,200.255888 375.0144,205.592668 375.0144,205.592668 C375.0144,205.592668 375.560495,200.983731 372.524916,199.406554 C369.490444,197.830481 367.48736,195.949575 365.180276,195.586206 C362.874298,195.221732 361.598604,194.858363 361.598604,194.858363 C361.598604,194.858363 362.327098,193.402677 361.902604,192.85707 C361.478109,192.311464 362.821236,192.508059 362.821236,192.508059" id="Fill-120" fill="#74B570"></path><path d="M375.984989,168.29485 C366.212771,170.902495 359.049425,177.149355 357.714036,178.665786 C356.378647,180.181114 356.378647,180.606333 356.378647,180.606333 L357.411142,182.54688 L357.896436,182.303897 C357.896436,182.303897 357.107142,180.667079 359.171025,178.544295 C362.730589,174.88299 367.06176,171.993707 370.036538,170.720258 C373.011316,169.446809 375.984989,168.29485 375.984989,168.29485" id="Fill-121" fill="#74B570"></path><path d="M349.008582,222.341895 L352.742807,222.341895 C355.398109,222.341895 357.550429,220.1915 357.550429,217.538572 L357.550429,208.967916 L344.20096,208.967916 L344.20096,217.538572 C344.20096,220.1915 346.35328,222.341895 349.008582,222.341895" id="Fill-122" fill="#75A1DE"></path><polygon id="Fill-123" fill="#FFFFFF" points="344.20096 211.438607 357.550429 211.438607 357.550429 210.49981 344.20096 210.49981"></polygon><polygon id="Fill-124" fill="#FFFFFF" points="344.20096 212.763966 357.550429 212.763966 357.550429 212.211733 344.20096 212.211733"></polygon><path d="M190.652218,29.9837858 C190.652218,19.8764859 182.516073,11.6677631 172.429905,11.5388719 C162.297309,11.4093181 153.889222,19.5614922 153.727825,29.6841442 C153.649338,34.6253042 155.516451,39.1302002 158.612829,42.4849053 C160.038865,44.0302742 160.830371,46.0553126 160.830371,48.1575532 L160.830371,56.4264694 C160.830371,61.776061 165.211287,66.1530599 170.566109,66.1530599 L173.811724,66.1530599 C179.166545,66.1530599 183.547462,61.776061 183.547462,56.4264694 L183.547462,48.1584368 C183.547462,46.0386352 184.365498,44.0101729 185.799273,42.4480162 C188.812742,39.1653223 190.652218,34.7893174 190.652218,29.9837858" id="Fill-125" fill="#F5DC95"></path><path d="M173.585105,62.3381238 L170.792727,62.3381238 C166.186298,62.3381238 162.417804,58.5725574 162.417804,53.9703579 L162.417804,46.8566027 C162.417804,45.0480396 161.736844,43.3059654 160.508684,41.9764092 C157.845644,39.090329 156.239418,35.2148682 156.306851,30.9638889 C156.445033,22.3234304 163.566371,15.3522617 172.191127,15.3522617 C172.259665,15.3522617 172.328204,15.3522617 172.396742,15.3535871 C181.073455,15.4644755 188.072087,22.5264312 188.072087,31.2217817 C188.072087,35.3559085 186.490182,39.1207018 183.897891,41.944711 C182.664204,43.2887357 181.960029,45.0336816 181.960029,46.8573758 L181.960029,53.9703579 C181.960029,58.5725574 178.191535,62.3381238 173.585105,62.3381238" id="Fill-126" fill="#FAEECA"></path><path d="M174.918284,51.4738229 L168.838284,51.4738229 C168.551971,51.4738229 168.313193,51.2562431 168.287767,50.9719536 C168.276713,50.8538861 167.141411,39.1272182 161.893818,35.8434198 C161.633914,35.6815051 161.556655,35.3406669 161.718051,35.0822218 C161.880553,34.8237768 162.221033,34.7452492 162.479709,34.9072744 C167.600175,38.1106677 169.054953,47.9914416 169.334633,50.3693569 L174.333498,50.3693569 C174.3136,49.5537087 174.360029,47.9788506 174.830953,45.9411108 C175.459956,43.2172767 177.002065,39.1084423 180.777193,35.0018167 C180.983913,34.7771683 181.333236,34.7623685 181.558749,34.9686827 C181.783156,35.174997 181.798633,35.5243396 181.591913,35.7488775 C174.69056,43.2546077 175.458851,50.7839734 175.466589,50.8591876 C175.484276,51.0154695 175.434531,51.1719723 175.329513,51.2892666 C175.2256,51.4066714 175.075258,51.4738229 174.918284,51.4738229" id="Fill-127" fill="#94BDF2"></path><path d="M163.821731,30.3109286 C163.456931,30.3109286 163.141876,30.3777488 162.890938,30.5266308 C162.34816,30.8476991 162.067375,31.6191686 162.05632,32.8196127 C162.045265,34.0930621 162.326051,34.912355 162.890938,35.254629 C164.255069,36.0805487 167.440989,34.5454513 170.497571,32.933925 C168.02688,31.6170701 165.433484,30.3109286 163.821731,30.3109286 Z M172.845556,32.9372384 C175.880029,34.5490961 179.056,36.0921456 180.457716,35.2667781 C181.044713,34.9214116 181.349818,34.0939456 181.3664,32.8074636 C181.382982,31.5927719 181.119884,30.8120249 180.584844,30.4867596 C179.229556,29.6626071 175.938618,31.2979899 172.845556,32.9372384 Z M179.46944,36.5987641 C177.416611,36.5987641 174.6176,35.1417525 171.670458,33.5623661 C167.863273,35.5881777 164.308131,37.4044721 162.318313,36.1991683 C161.383098,35.6327981 160.935389,34.5241351 160.950865,32.8096725 C160.965236,31.1958268 161.428422,30.1079278 162.328262,29.5762378 C164.321396,28.3966681 167.884276,30.2782364 171.672669,32.3097912 C175.535127,30.2515083 179.173178,28.334818 181.15968,29.5434352 C182.051782,30.0859489 182.492858,31.1889791 182.471855,32.8217112 C182.450851,34.5206009 181.961135,35.6633918 181.019287,36.2182756 C180.571578,36.4819116 180.049804,36.5987641 179.46944,36.5987641 L179.46944,36.5987641 Z" id="Fill-128" fill="#94BDF2"></path><path d="M174.144465,68.7770503 L170.607011,68.7770503 C169.360058,68.7770503 168.340829,67.7581803 168.340829,66.5128949 L168.340829,66.1815551 C168.340829,64.9362697 169.360058,63.9173998 170.607011,63.9173998 L174.144465,63.9173998 C175.390313,63.9173998 176.410647,64.9362697 176.410647,66.1815551 L176.410647,66.5128949 C176.410647,67.7581803 175.390313,68.7770503 174.144465,68.7770503" id="Fill-129" fill="#94BDF2"></path><path d="M160.294225,50.4798035 L160.294225,56.3286137 C160.294225,61.9310176 164.881862,66.5146621 170.489833,66.5146621 L173.888,66.5146621 C179.495971,66.5146621 184.083607,61.9310176 184.083607,56.3286137 L184.083607,50.4798035 L160.294225,50.4798035" id="Fill-130" fill="#94BDF2"></path><path d="M183.983011,52.3205066 L160.6944,52.3205066 C159.9648,52.3205066 159.367855,51.7240949 159.367855,50.9951473 L159.367855,50.847922 C159.367855,50.1189744 159.9648,49.5225628 160.6944,49.5225628 L183.983011,49.5225628 C184.712611,49.5225628 185.309556,50.1189744 185.309556,50.847922 L185.309556,50.9951473 C185.309556,51.7240949 184.712611,52.3205066 183.983011,52.3205066" id="Fill-131" fill="#9EC8FF"></path><path d="M184.06592,54.4181084 L160.954182,57.2705024 C160.230109,57.3598537 159.56352,56.8409755 159.475084,56.1175503 L159.456291,55.9714294 C159.366749,55.2480042 159.886313,54.5830052 160.610385,54.4936539 L183.723229,51.6411495 C184.447302,51.5517982 185.112785,52.0706763 185.202327,52.7941016 L185.220015,52.9402224 C185.309556,53.6636477 184.789993,54.3287571 184.06592,54.4181084" id="Fill-132" fill="#9EC8FF"></path><path d="M184.06592,58.45946 L160.954182,61.311854 C160.230109,61.4013157 159.56352,60.8824376 159.475084,60.1590123 L159.456291,60.0128915 C159.366749,59.2893558 159.886313,58.6243568 160.610385,58.5350055 L183.723229,55.6826116 C184.447302,55.5932603 185.112785,56.112028 185.202327,56.8355637 L185.220015,56.9816845 C185.309556,57.7051097 184.789993,58.3701087 184.06592,58.45946" id="Fill-133" fill="#9EC8FF"></path><path d="M182.639884,62.7843281 L163.390604,65.1600345 C162.726225,65.2419859 162.114909,64.7658506 162.033105,64.101956 L161.987782,63.7394703 C161.905978,63.0754653 162.382429,62.4651374 163.046807,62.383186 L182.297193,60.0074796 C182.961571,59.9255282 183.571782,60.4016635 183.654691,61.0655581 L183.698909,61.4280438 C183.780713,62.0920488 183.304262,62.7023767 182.639884,62.7843281" id="Fill-134" fill="#9EC8FF"></path><path d="M349.302633,68.0275596 L361.710255,68.0275596 C361.710255,74.8278673 356.108916,80.4236444 349.302633,80.4236444 C342.496349,80.4236444 336.896116,74.8278673 336.896116,68.0275596 C336.896116,61.2272519 342.496349,55.6314748 349.302633,55.6314748 L349.302633,68.0275596" id="Fill-135" fill="#9EC8FF"></path><path d="M363.788509,66.2918913 C363.788509,59.4456377 358.2336,53.895696 351.380887,53.895696 L351.380887,66.2918913 L363.788509,66.2918913" id="Fill-136" fill="#F39892"></path><path d="M338.973265,66.2918913 C338.973265,73.1380343 344.528175,78.6879761 351.380887,78.6879761 C344.574604,78.6879761 338.973265,73.092199 338.973265,66.2918913" id="Fill-137" fill="#F39892"></path><path d="M351.380887,53.895696 C344.528175,53.895696 338.973265,59.4456377 338.973265,66.2918913 C338.973265,59.4915835 344.574604,53.895696 351.380887,53.895696" id="Fill-138" fill="#F39892"></path><path d="M351.380887,78.6879761 C358.2336,78.6879761 363.788509,73.1380343 363.788509,66.2918913 C363.788509,73.092199 358.187171,78.6879761 351.380887,78.6879761" id="Fill-139" fill="#F39892"></path><polygon id="Fill-140" fill="#9EC8FF" points="106.477382 67.6617605 109.186851 67.6617605 109.186851 59.8280039 106.477382 59.8280039"></polygon><polygon id="Fill-141" fill="#9EC8FF" points="141.209658 67.6617605 143.920233 67.6617605 143.920233 62.3764488 141.209658 62.3764488"></polygon><polygon id="Fill-142" fill="#9EC8FF" points="117.960844 67.6617605 120.671418 67.6617605 120.671418 49.3328155 117.960844 49.3328155"></polygon><polygon id="Fill-143" fill="#9EC8FF" points="123.70368 67.6617605 126.413149 67.6617605 126.413149 59.4232171 123.70368 59.4232171"></polygon><polygon id="Fill-144" fill="#9EC8FF" points="129.445411 67.6617605 132.15488 67.6617605 132.15488 57.0912475 129.445411 57.0912475"></polygon><polygon id="Fill-145" fill="#9EC8FF" points="112.219113 67.6617605 114.928582 67.6617605 114.928582 54.6556791 112.219113 54.6556791"></polygon><polygon id="Fill-146" fill="#9EC8FF" points="135.20704 67.6617605 137.916509 67.6617605 137.916509 51.6426958 135.20704 51.6426958"></polygon></g><g id="Group-155" transform="translate(4.283636, 20.533864)"><mask id="mask-2" fill="white"><use xlink:href="#path-1"></use></mask><g id="Clip-149"></g><path d="M29.9708625,24.4126751 L15.7596916,15.7302468 L13.1891782,32.1738683 C19.8652393,33.2252095 26.4862487,30.1000124 29.9708625,24.4126751" id="Fill-148" fill="#A2DFF2" mask="url(#mask-2)"></path><path d="M29.9857862,24.3931261 C30.0241455,24.3305028 30.0742225,24.244244 30.0722327,24.2475574 C33.0736524,19.2243355 33.1949207,12.9855383 30.4411229,7.86446074 C25.4120785,10.496845 28.4068655,8.8976887 15.7596916,15.7302468 C29.9942982,24.4270332 27.7836102,23.0858801 29.9857862,24.3931261" id="Fill-150" fill="#9CD499" mask="url(#mask-2)"></path><path d="M0.137960727,9.97918183 L15.7596916,15.7302468 L30.4142604,7.81310307 C23.5594473,-4.85247146 5.10808436,-3.33349934 0.137960727,9.97918183" id="Fill-151" fill="#9EC8FF" mask="url(#mask-2)"></path><path d="M13.1891782,32.1738683 L15.7596916,15.7302468 L0.137960727,9.97918183 C-3.57680873,19.9295371 3.01656436,30.5716194 13.1891782,32.1738683" id="Fill-152" fill="#F39892" mask="url(#mask-2)"></path><path d="M-0.884363636,12.7013592 C-0.593408,12.7013592 -0.326109091,12.7758002 -0.094848,12.9054645 C0.0402385455,12.1598395 0.228276364,11.4197369 0.472360727,10.6907893 L8.95484509,13.8135565 L8.95418182,13.8058252 C8.93682618,13.4193726 9.08252509,13.0582122 9.32285091,12.772045 L0.858385455,9.65579417 C1.48318836,8.13626983 2.31415855,6.75436194 3.31183127,5.53337476 C2.95266909,5.4019433 2.65894982,5.14747433 2.46505309,4.82298221 C1.38789818,6.1399475 0.492369455,7.63230198 -0.178309818,9.27420117 L-0.187485091,9.27077732 L-0.573730909,10.305662 L-0.564555636,10.3090858 C-0.833291636,11.1065103 -1.03923782,11.9165257 -1.18604218,12.7326156 C-1.08688291,12.7127352 -0.985954909,12.7013592 -0.884363636,12.7013592" id="Fill-153" fill="#FFFFFF" mask="url(#mask-2)"></path><path d="M29.7897891,23.6343579 L29.6844393,23.5725078 C29.1038545,23.2289084 28.8515898,23.0795846 27.6944,22.374604 L16.8673571,15.7596256 L25.8552553,10.9039512 C27.1750575,10.1944423 27.7160669,9.9118094 29.0565411,9.21157794 C29.3839767,9.04049616 29.7590575,8.84456388 30.2046662,8.61152155 C32.5470138,13.3531046 32.3937978,19.0265257 29.7897891,23.6343579 Z M13.8219404,31.7050224 L16.1779956,16.6332583 L22.3095098,20.3799383 C24.7815273,21.8907374 26.1957353,22.7548716 27.0860684,23.2974958 L29.2027927,24.590715 C25.8262924,29.7071539 19.8935389,32.4509788 13.8219404,31.7050224 Z M31.1542516,8.0411753 L31.1634269,8.0362052 L30.9004393,7.55046105 L30.883968,7.52130315 L30.6690676,7.12159689 L30.6607767,7.12590431 C29.0025949,4.24733452 26.6382487,1.9517019 23.7944669,0.471496544 C21.0094953,-0.978115107 17.843584,-1.62687845 14.6374342,-1.4042181 C10.8679447,-1.14268054 7.43373964,0.269158369 4.70569891,2.55308365 C5.02628073,2.74780101 5.27191273,3.05053515 5.40821527,3.40816124 C7.96347345,1.26671208 11.1813411,-0.057432233 14.7140422,-0.302513243 C20.8794938,-0.730714718 26.5544553,2.28458796 29.6572451,7.59430835 L25.3291695,9.93257336 C24.4356305,10.4129056 23.1864669,11.0882866 21.095168,12.218818 C19.7553571,12.9431268 18.0694284,13.8545322 15.910144,15.0211797 L15.7767156,15.0933013 L15.3414982,14.8273459 L15.3177309,14.978989 L12.2697716,13.8568516 C12.2728669,14.2441878 12.1146764,14.6034706 11.8623011,14.8838945 L15.1437324,16.0919595 L12.7299724,31.5328362 C8.17118836,30.6539021 4.22670545,27.8528659 1.84655127,23.7822459 C0.423941818,21.3492177 -0.313838545,18.6425028 -0.347112727,15.9165703 C-0.519563636,15.9788621 -0.700858182,16.0147573 -0.884363636,16.0147573 C-1.08688291,16.0147573 -1.27691055,15.9768741 -1.45234618,15.9112688 C-1.420288,18.8322501 -0.631988364,21.7327988 0.891991273,24.3393386 C3.44061673,28.6980033 7.67108073,31.6932047 12.5594007,32.6240486 L12.5579636,32.633547 L13.1025105,32.719364 L13.6499316,32.8055124 L13.6513687,32.7959035 C14.3584175,32.8841504 15.0667927,32.9287708 15.7735098,32.9287708 C18.2590138,32.9287708 20.7208611,32.3858153 23.0100364,31.3208892 C25.940928,29.9576468 28.4031069,27.8261378 30.1619956,25.1400764 L30.1731607,25.1465928 L30.2813847,24.9695469 L30.4575942,24.680729 C30.4846778,24.6365504 30.5170676,24.581548 30.5355287,24.5501811 L30.547136,24.5307425 L30.555648,24.5157218 L30.7309731,24.2296651 L30.7230138,24.2248054 C33.547008,19.2653112 33.7079622,13.1413785 31.1542516,8.0411753 L31.1542516,8.0411753 Z" id="Fill-154" fill="#E7F3FE" mask="url(#mask-2)"></path></g><g id="Group-197" transform="translate(20.976000, 11.808583)"><path d="M90.1973527,27.4988845 L44.3692975,27.4988845 C43.8705164,27.4988845 43.4661411,27.0948708 43.4661411,26.5965358 L43.4661411,6.89341421 C43.4661411,6.39507915 43.8705164,5.99106548 44.3692975,5.99106548 L90.1973527,5.99106548 C90.6959127,5.99106548 91.1005091,6.39507915 91.1005091,6.89341421 L91.1005091,26.5965358 C91.1005091,27.0948708 90.6959127,27.4988845 90.1973527,27.4988845" id="Fill-156" fill="#9EC8FF"></path><path d="M89.0686836,26.4894026 L45.4981876,26.4894026 C45.0952495,26.4894026 44.7685876,26.1631433 44.7685876,25.7605654 L44.7685876,12.3706821 C44.7685876,11.9681042 45.0952495,11.6417345 45.4981876,11.6417345 L89.0686836,11.6417345 C89.4710691,11.6417345 89.7982836,11.9681042 89.7982836,12.3706821 L89.7982836,25.7605654 C89.7982836,26.1631433 89.4710691,26.4894026 89.0686836,26.4894026" id="Fill-158" fill="#FFFFFF"></path><path d="M46.8917236,9.25189095 L45.8342458,9.25189095 C45.610944,9.25189095 45.4298705,9.07097942 45.4298705,8.84787728 L45.4298705,7.97777895 C45.4298705,7.75467682 45.610944,7.57387573 45.8342458,7.57387573 L46.8917236,7.57387573 C47.1150255,7.57387573 47.2959884,7.75467682 47.2959884,7.97777895 L47.2959884,8.84787728 C47.2959884,9.07097942 47.1150255,9.25189095 46.8917236,9.25189095" id="Fill-159" fill="#FFFFFF"></path><path d="M50.2845847,9.25189095 L49.2272175,9.25189095 C49.0039156,9.25189095 48.8228422,9.07097942 48.8228422,8.84787728 L48.8228422,7.97777895 C48.8228422,7.75467682 49.0039156,7.57387573 49.2272175,7.57387573 L50.2845847,7.57387573 C50.5078865,7.57387573 50.68896,7.75467682 50.68896,7.97777895 L50.68896,8.84787728 C50.68896,9.07097942 50.5078865,9.25189095 50.2845847,9.25189095" id="Fill-160" fill="#FFFFFF"></path><path d="M53.6775564,9.25189095 L52.6200785,9.25189095 C52.3967767,9.25189095 52.2158138,9.07097942 52.2158138,8.84787728 L52.2158138,7.97777895 C52.2158138,7.75467682 52.3967767,7.57387573 52.6200785,7.57387573 L53.6775564,7.57387573 C53.9008582,7.57387573 54.0819316,7.75467682 54.0819316,7.97777895 L54.0819316,8.84787728 C54.0819316,9.07097942 53.9008582,9.25189095 53.6775564,9.25189095" id="Fill-161" fill="#FFFFFF"></path><path d="M87.96544,14.8960437 L64.1473164,14.8960437 C63.7559855,14.8960437 63.4354036,14.5757485 63.4354036,14.1841049 C63.4354036,13.7925717 63.7559855,13.4722765 64.1473164,13.4722765 L87.96544,13.4722765 C88.3578764,13.4722765 88.6784582,13.7925717 88.6784582,14.1841049 C88.6784582,14.5757485 88.3578764,14.8960437 87.96544,14.8960437" id="Fill-162" fill="#9EC8FF"></path><path d="M70.0515491,25.8792955 L46.2329833,25.8792955 C45.8409891,25.8792955 45.5204073,25.5590004 45.5204073,25.1673567 C45.5204073,24.7758235 45.8409891,24.4555284 46.2329833,24.4555284 L70.0515491,24.4555284 C70.44288,24.4555284 70.7634618,24.7758235 70.7634618,25.1673567 C70.7634618,25.5590004 70.44288,25.8792955 70.0515491,25.8792955" id="Fill-163" fill="#9EC8FF"></path><path d="M74.4390982,25.8792955 L71.9739345,25.8792955 C71.8401745,25.8792955 71.7307345,25.7697325 71.7307345,25.6358712 L71.7307345,24.6989527 C71.7307345,24.5650914 71.8401745,24.4555284 71.9739345,24.4555284 L74.4390982,24.4555284 C74.5728582,24.4555284 74.6822982,24.5650914 74.6822982,24.6989527 L74.6822982,25.6358712 C74.6822982,25.7697325 74.5728582,25.8792955 74.4390982,25.8792955" id="Fill-164" fill="#9EC8FF"></path><path d="M78.1545309,25.8792955 L75.6893673,25.8792955 C75.5556073,25.8792955 75.4461673,25.7697325 75.4461673,25.6358712 L75.4461673,24.6989527 C75.4461673,24.5650914 75.5556073,24.4555284 75.6893673,24.4555284 L78.1545309,24.4555284 C78.2882909,24.4555284 78.3977309,24.5650914 78.3977309,24.6989527 L78.3977309,25.6358712 C78.3977309,25.7697325 78.2882909,25.8792955 78.1545309,25.8792955" id="Fill-165" fill="#9EC8FF"></path><path d="M88.1953745,17.997826 L48.7522036,17.997826 C48.4862313,17.997826 48.2686778,17.7803567 48.2686778,17.5147326 C48.2686778,17.2489981 48.4862313,17.0316391 48.7522036,17.0316391 L88.1953745,17.0316391 C88.4606836,17.0316391 88.6784582,17.2489981 88.6784582,17.5147326 C88.6784582,17.7803567 88.4606836,17.997826 88.1953745,17.997826" id="Fill-166" fill="#9EC8FF"></path><path d="M88.1953745,20.0826161 L48.7522036,20.0826161 C48.4862313,20.0826161 48.2686778,19.8651467 48.2686778,19.5995226 C48.2686778,19.3337881 48.4862313,19.1164292 48.7522036,19.1164292 L88.1953745,19.1164292 C88.4606836,19.1164292 88.6784582,19.3337881 88.6784582,19.5995226 C88.6784582,19.8651467 88.4606836,20.0826161 88.1953745,20.0826161" id="Fill-167" fill="#9EC8FF"></path><path d="M207.187607,13.8036163 L186.847244,13.8036163 L186.847244,1.95888093 L202.144524,1.95888093 C204.114444,3.92659759 205.218793,5.0298487 207.187607,6.99767581 L207.187607,13.8036163" id="Fill-168" fill="#FFB8B3"></path><polyline id="Fill-169" fill="#F39892" points="201.77088 1.95888093 201.77088 8.28128621 207.187607 8.28128621 207.187607 7.06637359 202.110255 1.99322983 201.77088 1.95888093"></polyline><polyline id="Fill-170" fill="#FFB8B3" points="202.144524 1.95888093 202.144524 7.06637359 207.187607 7.06637359 202.144524 1.95888093"></polyline><path d="M198.205789,6.40369398 L189.141062,6.40369398 C188.944291,6.40369398 188.781789,6.2421106 188.781789,6.04474252 C188.781789,5.847264 188.944291,5.68579107 189.141062,5.68579107 L198.205789,5.68579107 C198.403665,5.68579107 198.565062,5.847264 198.565062,6.04474252 C198.565062,6.2421106 198.403665,6.40369398 198.205789,6.40369398" id="Fill-171" fill="#FFFFFF"></path><path d="M198.205789,8.24020008 L189.141062,8.24020008 C188.944291,8.24020008 188.781789,8.0786167 188.781789,7.88124862 C188.781789,7.6837701 188.944291,7.52229717 189.141062,7.52229717 L198.205789,7.52229717 C198.403665,7.52229717 198.565062,7.6837701 198.565062,7.88124862 C198.565062,8.0786167 198.403665,8.24020008 198.205789,8.24020008" id="Fill-172" fill="#FFFFFF"></path><path d="M198.205789,10.1730156 L189.141062,10.1730156 C188.944291,10.1730156 188.781789,10.0114322 188.781789,9.81406416 C188.781789,9.61658563 188.944291,9.4551127 189.141062,9.4551127 L198.205789,9.4551127 C198.403665,9.4551127 198.565062,9.61658563 198.565062,9.81406416 C198.565062,10.0114322 198.403665,10.1730156 198.205789,10.1730156" id="Fill-173" fill="#FFFFFF"></path><path d="M197.017425,2.86940272 C197.017425,3.2049395 196.745484,3.47685903 196.409425,3.47685903 C196.074473,3.47685903 195.801425,3.2049395 195.801425,2.86940272 C195.801425,2.53386594 196.074473,2.26194641 196.409425,2.26194641 C196.745484,2.26194641 197.017425,2.53386594 197.017425,2.86940272" id="Fill-174" fill="#3E6BAB"></path><polyline id="Fill-175" fill="#FAE8B6" points="116.769164 17.8286218 104.076335 15.3784744 107.033425 0.0878050485 119.726255 2.53806291 116.769164 17.8286218"></polyline><path d="M117.04,9.14829204 L110.311098,7.84932955 C110.132015,7.81475977 110.013731,7.64003324 110.048,7.46110975 C110.082269,7.28218625 110.258036,7.16411883 110.43712,7.19868862 L117.166022,8.49765111 C117.345105,8.53222089 117.463389,8.70694742 117.42912,8.88587091 C117.393745,9.06479441 117.219084,9.18286183 117.04,9.14829204" id="Fill-176" fill="#9EC8FF"></path><path d="M116.714996,10.8291789 L109.986095,9.53010594 C109.807011,9.49553616 109.688727,9.32092008 109.722996,9.14188614 C109.757265,8.96307309 109.931927,8.84489522 110.111011,8.87946501 L116.841018,10.1785379 C117.020102,10.2131077 117.138385,10.3877238 117.104116,10.5666473 C117.068742,10.7455708 116.89408,10.8637487 116.714996,10.8291789" id="Fill-177" fill="#9EC8FF"></path><path d="M116.381149,12.5562324 L109.652247,11.2571595 C109.472058,11.2225897 109.35488,11.0479736 109.389149,10.8690501 C109.423418,10.6901266 109.59808,10.5719487 109.777164,10.6065185 L116.507171,11.9055915 C116.686255,11.9401612 116.804538,12.1147773 116.769164,12.2938113 C116.734895,12.4727348 116.560233,12.5908022 116.381149,12.5562324" id="Fill-178" fill="#9EC8FF"></path><path d="M112.484422,2.13824621 C112.426938,2.4377774 112.137309,2.63359922 111.837731,2.5757252 C111.537047,2.51785118 111.341382,2.22826019 111.398865,1.92872901 C111.457455,1.62930827 111.747084,1.43348645 112.046662,1.49136047 C112.34624,1.54923449 112.543011,1.83882548 112.484422,2.13824621" id="Fill-179" fill="#3E6BAB"></path><path d="M216.575127,30.3762394 L196.932305,28.3087894 L198.229004,16.0068051 L213.803753,17.646164 C215.225367,19.4007188 216.0224,20.3844666 217.444015,22.1391318 L216.575127,30.3762394" id="Fill-180" fill="#9EC8FF"></path><polyline id="Fill-181" fill="#FFFFFF" points="213.525178 18.5238832 198.903331 16.9850307 197.810036 27.3646919 215.987025 29.2778479 216.628189 23.2000819 213.071942 22.8257783 213.525178 18.5238832"></polyline><path d="M211.543098,22.2946406 L202.071564,21.29786 C201.854895,21.2749976 201.695709,21.0789549 201.718924,20.8620377 C201.741033,20.6452311 201.937804,20.4865193 202.154473,20.5093817 L211.626007,21.5062728 C211.843782,21.5290248 212.001862,21.7251779 211.979753,21.9419846 C211.956538,22.1587913 211.760873,22.3175031 211.543098,22.2946406" id="Fill-182" fill="#9EC8FF"></path><path d="M211.323113,24.3802038 L201.851578,23.3833128 C201.634909,23.3604503 201.475724,23.1642972 201.498938,22.9476009 C201.522153,22.7306838 201.717818,22.571972 201.934487,22.5948345 L211.407127,23.5917255 C211.623796,23.614588 211.781876,23.8106307 211.759767,24.0274374 C211.736553,24.244244 211.540887,24.4030663 211.323113,24.3802038" id="Fill-183" fill="#9EC8FF"></path><path d="M211.094284,26.5574377 L201.622749,25.5605466 C201.404975,25.5377946 201.246895,25.3416415 201.269004,25.1248348 C201.292218,24.9080281 201.487884,24.7492059 201.705658,24.7720683 L211.177193,25.7689594 C211.393862,25.7918218 211.553047,25.9878645 211.529833,26.2047817 C211.506618,26.4215883 211.310953,26.5803001 211.094284,26.5574377" id="Fill-184" fill="#9EC8FF"></path><path d="M206.187171,18.8472708 C206.187171,19.1828076 205.915229,19.4547271 205.579171,19.4547271 C205.244218,19.4547271 204.971171,19.1828076 204.971171,18.8472708 C204.971171,18.5118445 205.244218,18.2398145 205.579171,18.2398145 C205.915229,18.2398145 206.187171,18.5118445 206.187171,18.8472708" id="Fill-185" fill="#3E6BAB"></path><path d="M314.176815,9.25189095 C314.176815,12.9939323 311.140131,16.0275691 307.394851,16.0275691 C303.649571,16.0275691 300.612887,12.9939323 300.612887,9.25189095 C300.612887,5.50973918 303.649571,2.47610237 307.394851,2.47610237 C311.140131,2.47610237 314.176815,5.50973918 314.176815,9.25189095" id="Fill-186" fill="#9CD499"></path><path d="M306.721629,11.5710487 L306.709469,11.5708278 C306.617716,11.567404 306.532596,11.5268701 306.472902,11.4586141 L304.630109,9.36730765 C304.509615,9.22980163 304.52288,9.02050532 304.659956,8.89967674 C304.798138,8.77873771 305.007069,8.79210175 305.128669,8.92949732 L306.739316,10.7586035 L310.424902,7.15484132 C310.555345,7.02683371 310.765382,7.02904264 310.893615,7.15992186 C311.021847,7.29069064 311.019636,7.50042874 310.889193,7.62843635 L306.953775,11.4765064 C306.891869,11.537252 306.807855,11.5710487 306.721629,11.5710487" id="Fill-187" fill="#FFFFFF"></path><path d="M1.82632145,72.1512308 L40.9262487,72.1512308 C41.9284538,72.1512308 42.74848,71.3320483 42.74848,70.3307394 L42.74848,56.3736023 C42.74848,55.3722934 41.9284538,54.553111 40.9262487,54.553111 L1.82632145,54.553111 C0.824226909,54.553111 0.00431127273,55.3722934 0.00431127273,56.3736023 L0.00431127273,70.3307394 C0.00431127273,71.3320483 0.824226909,72.1512308 1.82632145,72.1512308" id="Fill-188" fill="#9EC8FF"></path><path d="M37.5856756,69.4963153 L37.5856756,79.2056761 L26.3872,68.0172144 C26.3872,68.0172144 37.357952,69.4963153 37.5856756,69.4963153" id="Fill-189" fill="#9EC8FF"></path><path d="M3.75998255,70.4066162 L38.9926982,70.4066162 C39.8423505,70.4066162 40.5375709,69.712128 40.5375709,68.8632354 L40.5375709,57.8412168 C40.5375709,56.9923242 39.8423505,56.2977255 38.9926982,56.2977255 L3.75998255,56.2977255 C2.91033018,56.2977255 2.21522036,56.9923242 2.21522036,57.8412168 L2.21522036,68.8632354 C2.21522036,69.712128 2.91033018,70.4066162 3.75998255,70.4066162" id="Fill-190" fill="#FFFFFF"></path><path d="M19.6680262,59.787065 L36.9783389,59.787065 C37.3958691,59.787065 37.7375651,59.4456746 37.7375651,59.0285177 C37.7375651,58.6112505 37.3958691,58.26986 36.9783389,58.26986 L19.6680262,58.26986 C19.250496,58.26986 18.9089105,58.6112505 18.9089105,59.0285177 C18.9089105,59.4456746 19.250496,59.787065 19.6680262,59.787065" id="Fill-191" fill="#9EC8FF"></path><path d="M5.20945455,62.6872823 L37.3155025,62.6872823 C37.547648,62.6872823 37.7375651,62.4974246 37.7375651,62.2654868 L37.7375651,62.2568719 C37.7375651,62.0249341 37.547648,61.8350763 37.3155025,61.8350763 L5.20945455,61.8350763 C4.97730909,61.8350763 4.787392,62.0249341 4.787392,62.2568719 L4.787392,62.2654868 C4.787392,62.4974246 4.97730909,62.6872823 5.20945455,62.6872823" id="Fill-192" fill="#9EC8FF"></path><path d="M5.20945455,64.3382381 L37.3155025,64.3382381 C37.547648,64.3382381 37.7375651,64.1484909 37.7375651,63.916553 L37.7375651,63.9078277 C37.7375651,63.6758899 37.547648,63.4861426 37.3155025,63.4861426 L5.20945455,63.4861426 C4.97730909,63.4861426 4.787392,63.6758899 4.787392,63.9078277 L4.787392,63.916553 C4.787392,64.1484909 4.97730909,64.3382381 5.20945455,64.3382381" id="Fill-193" fill="#9EC8FF"></path><path d="M291.009804,59.8556523 L293.059316,59.8556523 C293.492655,59.8556523 293.843084,59.5052053 293.843084,59.0728068 L293.843084,57.386729 C293.843084,56.9543306 293.492655,56.6038835 293.059316,56.6038835 L291.009804,56.6038835 C290.577571,56.6038835 290.227142,56.9543306 290.227142,57.386729 L290.227142,59.0728068 C290.227142,59.5052053 290.577571,59.8556523 291.009804,59.8556523" id="Fill-194" fill="#9EC8FF"></path><path d="M284.43456,59.8556523 L286.484073,59.8556523 C286.917411,59.8556523 287.26784,59.5052053 287.26784,59.0728068 L287.26784,57.386729 C287.26784,56.9543306 286.917411,56.6038835 286.484073,56.6038835 L284.43456,56.6038835 C284.002327,56.6038835 283.651898,56.9543306 283.651898,57.386729 L283.651898,59.0728068 C283.651898,59.5052053 284.002327,59.8556523 284.43456,59.8556523" id="Fill-195" fill="#9EC8FF"></path><path d="M277.859316,59.8556523 L279.908829,59.8556523 C280.342167,59.8556523 280.692596,59.5052053 280.692596,59.0728068 L280.692596,57.386729 C280.692596,56.9543306 280.342167,56.6038835 279.908829,56.6038835 L277.859316,56.6038835 C277.427084,56.6038835 277.076655,56.9543306 277.076655,57.386729 L277.076655,59.0728068 C277.076655,59.5052053 277.427084,59.8556523 277.859316,59.8556523" id="Fill-196" fill="#9EC8FF"></path></g></g></g></g></svg> 